<svg width="12" height="12" viewBox="0 0 12 12" fill="none" xmlns="http://www.w3.org/2000/svg">
<path d="M2.66624 5.53176L8.00639 0.191706C8.1299 0.068097 8.29478 0 8.47058 0C8.64638 0 8.81126 0.068097 8.93477 0.191706L9.32804 0.584873C9.58394 0.841066 9.58394 1.25745 9.32804 1.51326L4.84378 5.99751L9.33301 10.4867C9.45652 10.6104 9.52472 10.7751 9.52472 10.9508C9.52472 11.1267 9.45652 11.2915 9.33301 11.4152L8.93975 11.8083C8.81614 11.9319 8.65136 12 8.47556 12C8.29975 12 8.13488 11.9319 8.01137 11.8083L2.66624 6.46336C2.54243 6.33936 2.47443 6.1738 2.47482 5.99781C2.47443 5.82112 2.54243 5.65566 2.66624 5.53176Z" fill="#F0CA2B"/>
</svg>
