<svg width="12" height="12" viewBox="0 0 12 12" fill="none" xmlns="http://www.w3.org/2000/svg">
<path d="M9.33382 5.53176L3.99367 0.191706C3.87016 0.068097 3.70528 0 3.52948 0C3.35368 0 3.1888 0.068097 3.06529 0.191706L2.67202 0.584873C2.41612 0.841066 2.41612 1.25745 2.67202 1.51326L7.15628 5.99751L2.66705 10.4867C2.54354 10.6104 2.47534 10.7751 2.47534 10.9508C2.47534 11.1267 2.54354 11.2915 2.66705 11.4152L3.06031 11.8083C3.18392 11.9319 3.3487 12 3.5245 12C3.70031 12 3.86518 11.9319 3.9887 11.8083L9.33382 6.46336C9.45763 6.33936 9.52563 6.1738 9.52524 5.99781C9.52563 5.82112 9.45763 5.65566 9.33382 5.53176Z" fill="#F0CA2B"/>
</svg>
