<svg width="16" height="16" viewBox="0 0 16 16" fill="none" xmlns="http://www.w3.org/2000/svg">
<path d="M15.8105 14.8926L8.9178 7.99994L15.8104 1.10729C16.0638 0.854014 16.0638 0.443296 15.8104 0.189984C15.5572 -0.063328 15.1464 -0.063328 14.8931 0.189984L8.00049 7.08263L1.10778 0.189984C0.854502 -0.063328 0.443784 -0.063328 0.190472 0.189984C-0.0628397 0.443265 -0.0628397 0.853983 0.190472 1.10729L7.08315 7.99994L0.190472 14.8926C-0.0628397 15.146 -0.0628397 15.5566 0.190472 15.81C0.443753 16.0632 0.854471 16.0633 1.10778 15.81L8.00049 8.91725L14.8932 15.81C15.1465 16.0632 15.5572 16.0633 15.8105 15.81C16.0638 15.5566 16.0638 15.146 15.8105 14.8926Z" fill="#161718"/>
</svg>
