<svg width="16" height="16" viewBox="0 0 16 16" fill="none" xmlns="http://www.w3.org/2000/svg">
<path d="M15.8105 14.8927L8.9178 8.00003L15.8104 1.10739C16.0638 0.854106 16.0638 0.443388 15.8104 0.190076C15.5572 -0.0632365 15.1464 -0.0632365 14.8931 0.190076L8.00049 7.08272L1.10778 0.190076C0.854502 -0.0632365 0.443784 -0.0632365 0.190472 0.190076C-0.0628397 0.443356 -0.0628397 0.854074 0.190472 1.10739L7.08315 8.00003L0.190472 14.8927C-0.0628397 15.146 -0.0628397 15.5567 0.190472 15.81C0.443753 16.0633 0.854471 16.0634 1.10778 15.81L8.00049 8.91734L14.8932 15.81C15.1465 16.0633 15.5572 16.0634 15.8105 15.81C16.0638 15.5567 16.0638 15.146 15.8105 14.8927Z" fill="white"/>
</svg>
