<svg width="719" height="354" viewBox="0 0 719 354" fill="none" xmlns="http://www.w3.org/2000/svg">
<path d="M0 346.668V6.95284C0 3.57839 2.81142 0.842857 6.27947 0.842857L685.28 0C690.696 0 699.964 0 699.964 0L607.712 105.317C606.143 107.115 605.778 109.631 606.774 111.781L719 354C719 354 712.883 354 708.325 354L6.27948 352.778C2.81142 352.778 0 350.042 0 346.668Z" fill="#161718"/>
<path d="M612.368 109.345L718 354L574 109.345L700 0H700.5L612.368 109.345Z" fill="#FFCE06"/>
<path d="M637 173.5L718 354L580.5 133.5L604 92.5L637 173.5Z" fill="#FFCE06" fill-opacity="0.7"/>
<path d="M0 186.799V37.3599L67.6527 112.08L0 186.799Z" fill="#FFCE06" fill-opacity="0.7"/>
<path d="M0 148.214V75.9446L32.1628 112.08L0 148.214Z" fill="#FFCE06"/>
<path d="M0 280.505V131.066L67.6527 205.786L0 280.505Z" fill="#FFCE06"/>
</svg>
