<svg width="126" height="52" viewBox="0 0 126 52" fill="none" xmlns="http://www.w3.org/2000/svg">
<g clip-path="url(#clip0)">
<path fill-rule="evenodd" clip-rule="evenodd" d="M53.1246 4.37061H55.1073C55.1422 4.37073 55.1764 4.38078 55.2059 4.39959C55.2353 4.4184 55.2588 4.4452 55.2737 4.47685L61.1234 15.5609C61.1394 15.5919 61.1477 15.6262 61.1477 15.6611C61.1477 15.696 61.1394 15.7303 61.1234 15.7613C61.1081 15.7925 61.0844 15.8187 61.055 15.8371C61.0256 15.8556 60.9917 15.8654 60.957 15.8656H54.2232C54.1898 15.8652 54.1571 15.8559 54.1286 15.8387C54.1 15.8214 54.0766 15.7968 54.0608 15.7673L49.9612 8.74888C49.9484 8.72521 49.9307 8.70456 49.9093 8.68831C49.8878 8.67205 49.8631 8.66058 49.8369 8.65466C49.8112 8.64905 49.7846 8.64919 49.7589 8.65508C49.7333 8.66098 49.7092 8.67247 49.6886 8.68874L43.2494 13.484C43.2145 13.5108 43.1887 13.5476 43.1754 13.5896C43.1621 13.6315 43.1621 13.6766 43.1753 13.7185C43.1867 13.7593 43.2106 13.7954 43.2437 13.8216C43.2769 13.8479 43.3175 13.8631 43.3597 13.8649H50.3962C50.4282 13.8649 50.4596 13.8732 50.4873 13.8891C50.5151 13.9049 50.5383 13.9276 50.5546 13.9551C50.5736 13.9845 50.5854 14.018 50.5888 14.0529C50.5923 14.0878 50.5875 14.123 50.5746 14.1556L50.0073 15.7453C49.9942 15.7829 49.9703 15.8157 49.9385 15.8396C49.9068 15.8635 49.8686 15.8774 49.8289 15.8796H38.4742C38.432 15.8778 38.3914 15.8627 38.3583 15.8364C38.3252 15.8101 38.3012 15.774 38.2898 15.7333C38.2769 15.6913 38.2771 15.6463 38.2903 15.6044C38.3036 15.5625 38.3293 15.5257 38.364 15.4987L53.0224 4.4127C53.0509 4.38783 53.0868 4.37303 53.1246 4.37061Z" fill="#EFC825"/>
<path fill-rule="evenodd" clip-rule="evenodd" d="M67.2839 4.37644C71.7483 4.37644 75.6395 4.32031 80.114 4.32031H80.134C84.5444 4.83753 82.5136 8.75071 80.565 9.6849C80.5404 9.69677 80.5184 9.71356 80.5004 9.73425C80.4825 9.75494 80.469 9.77908 80.4608 9.80518C80.442 9.85979 80.4456 9.91961 80.4708 9.97157C81.826 12.7982 78.3919 15.8794 76.2349 15.8794H63.3246C63.2926 15.8794 63.2612 15.8711 63.2335 15.8553C63.2057 15.8394 63.1825 15.8167 63.1662 15.7892C63.1472 15.7598 63.1354 15.7263 63.132 15.6914C63.1285 15.6565 63.1333 15.6214 63.1462 15.5888L67.1034 4.50474C67.1165 4.46719 67.1404 4.43436 67.1722 4.41044C67.204 4.38652 67.2422 4.3726 67.2819 4.37043L67.2839 4.37644ZM72.5181 6.50544C72.4784 6.50761 72.4403 6.52153 72.4085 6.54545C72.3767 6.56937 72.3528 6.60219 72.3397 6.63975L69.8599 13.5861C69.8469 13.6186 69.842 13.6538 69.8454 13.6887C69.8489 13.7236 69.8608 13.7572 69.88 13.7865C69.8963 13.814 69.9195 13.8367 69.9472 13.8526C69.975 13.8684 70.0064 13.8767 70.0383 13.8767H72.8128C74.2582 13.8767 75.8981 10.6812 73.6448 10.6812H72.0611C72.0291 10.6812 71.9977 10.6729 71.97 10.6571C71.9422 10.6412 71.919 10.6185 71.9027 10.591C71.8834 10.5617 71.8714 10.5282 71.8679 10.4933C71.8644 10.4583 71.8695 10.4231 71.8827 10.3906L72.4179 8.89104C72.4311 8.85317 72.4553 8.82013 72.4875 8.79619C72.5197 8.77225 72.5583 8.7585 72.5983 8.75672H74.4346C74.8862 8.75833 75.3317 8.65179 75.7337 8.44599C76.6258 7.93479 77.1229 6.55155 75.5693 6.50343H72.5181V6.50544Z" fill="#EFC825"/>
<path fill-rule="evenodd" clip-rule="evenodd" d="M85.7292 4.37679H99.8103C99.8422 4.37682 99.8736 4.38515 99.9014 4.40096C99.9291 4.41678 99.9523 4.43953 99.9686 4.467C99.9877 4.49642 99.9994 4.52995 100.003 4.56481C100.006 4.59967 100.002 4.63486 99.9887 4.66747L99.3873 6.37948C99.3754 6.41759 99.3517 6.45094 99.3196 6.47472C99.2876 6.4985 99.2488 6.51148 99.2089 6.5118H94.9629C94.9232 6.51396 94.885 6.52789 94.8533 6.55181C94.8215 6.57572 94.7975 6.60855 94.7845 6.64611L91.5328 15.7455C91.5198 15.783 91.4958 15.8158 91.4641 15.8398C91.4323 15.8637 91.3941 15.8776 91.3544 15.8798H86.054C86.022 15.8797 85.9906 15.8714 85.9629 15.8556C85.9351 15.8398 85.9119 15.817 85.8956 15.7896C85.8766 15.7601 85.8649 15.7266 85.8614 15.6917C85.8579 15.6569 85.8627 15.6217 85.8756 15.5891L89.0089 6.79045C89.0221 6.75791 89.0271 6.72266 89.0236 6.68774C89.0201 6.65282 89.0082 6.61927 88.9889 6.58998C88.973 6.562 88.9499 6.53874 88.9221 6.52254C88.8943 6.50634 88.8627 6.4978 88.8305 6.49776H85.1178C85.0858 6.49773 85.0544 6.4894 85.0267 6.47359C84.9989 6.45777 84.9757 6.43502 84.9594 6.40755C84.9401 6.37826 84.9282 6.34471 84.9247 6.30979C84.9212 6.27487 84.9262 6.23962 84.9394 6.20708L85.5408 4.49506C85.557 4.45894 85.5836 4.42843 85.6171 4.40738C85.6506 4.38633 85.6897 4.37569 85.7292 4.37679Z" fill="#EFC825"/>
<path fill-rule="evenodd" clip-rule="evenodd" d="M82.7783 17.2668C81.2286 19.2856 78.8651 20.6748 76.5837 20.6748H63.6775C63.2662 20.6755 62.8584 20.6001 62.4746 20.4523C62.098 20.5951 61.6986 20.6684 61.2959 20.6688H54.5741C53.7655 20.6671 52.9839 20.3779 52.3689 19.8529C51.7539 20.3779 50.9723 20.6671 50.1638 20.6688H38.8312C37.2635 20.6688 35.8762 19.5682 35.4071 17.9464C35.3602 17.7831 35.3234 17.6171 35.2969 17.4493C35.574 18.0675 36.0216 18.5941 36.5872 18.9672C37.1527 19.3403 37.8129 19.5447 38.4904 19.5562H49.839C50.6473 19.555 51.4289 19.2665 52.0442 18.7423C52.66 19.2656 53.4412 19.554 54.2493 19.5562H60.9811C61.3837 19.5556 61.7829 19.4829 62.1599 19.3417C62.5441 19.4879 62.9517 19.5626 63.3627 19.5622H76.269C78.5744 19.5622 80.968 18.1349 82.5157 16.0801C82.5555 16.4881 82.6555 16.888 82.8124 17.2668H82.7783ZM119.14 4.56303C118.161 2.87507 116.487 2.20751 114.669 2.13333L112.763 8.53435L119.5 5.32683C119.396 5.06731 119.273 4.81543 119.134 4.57306L119.14 4.56303ZM112.366 2.30774C111.117 2.53867 109.903 2.93298 108.757 3.48049C107.734 3.98946 106.789 4.64152 105.951 5.41704L110.519 8.51631L112.368 2.30173L112.366 2.30774ZM113.368 10.4529L119.931 7.3195C120.018 9.43847 119.065 11.6176 117.744 13.4238L113.372 10.4529H113.368ZM104.245 7.27941L108.855 10.4108L101.999 13.6844C101.773 11.4612 102.767 9.17185 104.245 7.27941ZM102.521 15.639C102.597 15.8014 102.679 15.9618 102.771 16.1222C103.749 17.8101 105.694 18.5278 107.442 18.6741H107.494L109.373 12.3613L102.521 15.639ZM109.784 18.5659C111.525 18.2599 113.176 17.5696 114.617 16.5451C115.136 16.1784 115.625 15.7715 116.08 15.3283L111.642 12.3212L109.784 18.5659ZM121.11 3.33014C124.308 8.75888 120.226 15.4446 115.854 18.4596C113.328 20.2017 110.241 21.19 107.22 20.9475C104.728 20.747 102.176 19.6605 100.805 17.327C97.2202 11.2427 102.631 3.82931 107.847 1.36954C108.577 1.02491 109.33 0.73151 110.1 0.491482C113.895 -0.683274 118.769 -0.64719 121.114 3.33014H121.11ZM120.683 3.55467C123.736 8.82904 119.659 15.2862 115.635 18.1128C110.307 21.8536 103.729 21.164 101.382 17.1105C97.9539 11.1886 103.337 4.05785 108.13 1.75444C112.518 -0.352498 118.217 -0.699312 120.681 3.55868L120.683 3.55467ZM121.954 2.90715C125.468 8.82503 120.715 15.8154 115.94 19.0851C113.218 20.9475 110.327 22.2124 107.091 21.9558C104.335 21.7373 101.52 20.5245 99.9826 17.9364C98.7995 15.9472 98.4034 13.5874 98.872 11.3209H97.5168L95.045 18.193C94.5098 19.6945 93.1807 20.6829 91.6972 20.6829H86.4028C85.8062 20.6754 85.2213 20.5161 84.7033 20.2201C84.1853 19.9241 83.7512 19.5011 83.4418 18.9909C83.1487 18.5244 82.953 18.0034 82.8665 17.4593C82.9343 17.5972 83.0099 17.731 83.093 17.8602C83.4023 18.3704 83.8365 18.7934 84.3545 19.0895C84.8725 19.3855 85.4574 19.5447 86.054 19.5522H91.3504C92.8339 19.5522 94.157 18.5659 94.6982 17.0644L97.156 10.1822H99.1326C100.376 6.00442 103.944 2.27968 107.494 0.621788C108.271 0.258225 109.071 -0.051237 109.89 -0.304385C114.048 -1.57136 119.362 -1.44506 121.946 2.90715H121.954Z" fill="#EFC825"/>
<path fill-rule="evenodd" clip-rule="evenodd" d="M123.564 2.15941C127.642 8.76491 123.536 16.1923 118.095 19.7627C115.088 21.7373 111.622 22.9843 108.02 22.7096C105.506 22.5092 102.978 21.9258 101.129 20.1677C102.914 21.6832 105.237 22.1724 107.544 22.3408C111.113 22.6154 114.28 21.2041 117.251 19.2295C122.638 15.6471 126.726 8.29781 122.931 1.78854C122.261 0.677397 121.358 -0.274266 120.282 -1C121.632 -0.248981 122.762 0.839732 123.564 2.15941Z" fill="#EFC825"/>
<path fill-rule="evenodd" clip-rule="evenodd" d="M52.7458 42.3356C52.7859 42.4178 52.8019 42.6263 52.8821 42.7927C53.1147 43.2999 53.5778 43.368 53.9286 43.4723L53.9506 43.4823L54.121 43.5144H59.4195L61.1315 38.7291L61.1435 38.6931V38.667H60.2835L58.9183 42.502H53.6199C53.311 42.4674 53.0117 42.3742 52.7378 42.2274L52.7458 42.3356Z" fill="#EDEFEF"/>
<path fill-rule="evenodd" clip-rule="evenodd" d="M65.3271 25.2195H64.4671L63.0778 29.1046H60.163H60.159L57.7233 31.6706L57.6792 31.7267H59.1005H59.1286L60.163 30.6382L60.588 30.1671H60.6161L60.6602 30.121H63.561L64.4952 27.553L65.3271 25.2195Z" fill="#EDEFEF"/>
<path fill-rule="evenodd" clip-rule="evenodd" d="M60.7426 34.818L60.7566 34.7719V34.7459L60.7707 34.7038V34.6777L60.8208 34.4652V34.4391V34.393V34.373V34.3209V34.3048C60.8553 34.0869 60.842 33.8642 60.7818 33.6519C60.7215 33.4397 60.6158 33.2432 60.472 33.0759L60.4539 33.0559L60.4299 33.0358L60.3938 33.0038L60.3837 32.9937L60.3336 32.9617C60.3456 33.2542 60.3007 33.5463 60.2013 33.8217L58.8381 37.6487H59.6981L60.7005 34.8421L60.7426 34.818Z" fill="#EDEFEF"/>
<path fill-rule="evenodd" clip-rule="evenodd" d="M63.3146 42.3897V42.4098L63.3407 42.4539L63.3507 42.4679L63.3868 42.5321L63.4289 42.5922L63.5772 42.7927L63.5933 42.8127L63.6294 42.8468L63.6554 42.8769L63.6815 42.9009L63.7176 42.935L63.7336 42.949L63.7857 42.9932L63.8378 43.0373H63.8539L63.89 43.0613L63.9321 43.0854L63.9481 43.0994L64.0062 43.1295H64.0163L64.0584 43.1595L64.0904 43.1736H64.1005H64.1165L64.1746 43.1976H64.1907L64.2268 43.2117L64.2849 43.2317C64.5392 43.3091 64.7975 43.3726 65.0587 43.4222L65.4757 43.4522H72.4059L73.0755 43.4021H73.0855H73.1597H73.2379H73.3161L73.3943 43.3881H73.4524H73.4785H73.5105L73.6268 43.368H73.6428L73.7491 43.348L73.8072 43.334H73.8172L73.9917 43.2898L74.0498 43.2758H74.0819H74.1139L74.1721 43.2558L74.2362 43.2317H74.2623L74.2944 43.2177L74.3525 43.1976L74.4167 43.1736C74.7147 43.0484 75.0006 42.8961 75.2707 42.7185H75.2867L75.429 42.6143L75.4771 42.5842L75.5032 42.5601L75.5714 42.51L75.6495 42.4499H75.6596L75.7177 42.3958L75.7778 42.3015L75.8139 42.2675L75.8721 42.2173L75.8821 42.2033L76.0826 42.0028L76.1507 41.9387C76.7607 41.2301 77.2516 40.4271 77.6041 39.5611L77.6302 39.511L77.6462 39.4669L77.6823 39.3767L77.7084 39.3165L77.7244 39.2824L77.7605 39.1882L77.7866 39.1181L77.7966 39.098L77.8607 38.9136L78.414 37.37L78.4301 37.3198L78.4401 37.2898L78.4661 37.2096L78.4862 37.1595L78.4962 37.1294L78.5223 37.0492L78.5443 36.9991L78.5544 36.969L78.5844 36.8888L78.6065 36.8347L78.6165 36.8106L78.6426 36.7365L78.6626 36.6763L78.6726 36.6563L78.8891 36.0368L78.9473 35.8765L79.0054 35.7161L79.1738 35.237L79.2319 35.0826L79.2901 34.9222L79.3482 34.7618L79.4003 34.6015L79.4585 34.4411L79.5166 34.2807L79.5747 34.1203L79.6329 33.96L79.691 33.7996L79.7431 33.6392L79.8013 33.4788L79.8594 33.3185L79.9176 33.1581L79.9757 32.9977L80.0278 32.8373L80.0859 32.677L80.1441 32.5166L80.2022 32.3562L80.2604 32.1958L80.3185 32.0354L80.3706 31.8751L80.4288 31.7147L80.4869 31.5543L80.545 31.3939L80.6032 31.2336L80.7134 30.9188L80.7716 30.7585L81.5293 28.6154L81.5394 28.5854V28.5513L81.5494 28.5112V28.4811V28.4691L81.5594 28.439V28.419V28.4049V28.3648V28.3508V28.3267V28.2867V28.2425V28.2185V28.2045V28.1604V28.1303V28.0681V28.008V27.9839V27.9398V27.8957V27.6151V27.591V27.5209V27.4707V27.4507L81.5494 27.3304V27.3164V27.2663L81.5333 27.172L81.5233 27.1019V27.0818V27.0377L81.4812 26.8373V26.8032L81.4652 26.7691V26.7551L81.401 26.5706L81.3489 26.4363L81.3289 26.3922L81.3068 26.3481L81.2848 26.304L81.2627 26.2739L81.2527 26.2539L81.2427 26.2298L81.2166 26.1897L81.2066 26.1757L81.1905 26.1456L81.1645 26.1055L81.1324 26.0654L81.1224 26.0514L81.1063 26.0274L81.0121 25.9131C81.1468 26.5011 81.1392 27.1128 80.9901 27.6973C79.7739 31.1053 78.5577 34.5133 77.3415 37.9213C75.7778 42.3537 73.1717 42.4238 71.9248 42.502H65.1409C64.1987 42.502 63.5552 42.2675 63.1562 41.8665C63.1837 42.0476 63.237 42.2238 63.3146 42.3897Z" fill="#ECECEC"/>
<path fill-rule="evenodd" clip-rule="evenodd" d="M63.3146 42.3897V42.4098L63.3407 42.4539L63.3507 42.4679L63.3868 42.5321L63.4289 42.5922L63.5772 42.7927L63.5933 42.8127L63.6294 42.8468L63.6554 42.8769L63.6815 42.9009L63.7176 42.935L63.7336 42.949L63.7857 42.9932L63.8378 43.0373H63.8539L63.89 43.0613L63.9321 43.0854L63.9481 43.0994L64.0062 43.1295H64.0163L64.0584 43.1595L64.0904 43.1736H64.1005H64.1165L64.1746 43.1976H64.1907L64.2268 43.2117L64.2849 43.2317C64.5392 43.3091 64.7975 43.3726 65.0587 43.4222L65.4757 43.4522H72.4059L73.0755 43.4021H73.0855H73.1597H73.2379H73.3161L73.3943 43.3881H73.4524H73.4785H73.5105L73.6268 43.368H73.6428L73.7491 43.348L73.8072 43.334H73.8172L73.9917 43.2898L74.0498 43.2758H74.0819H74.1139L74.1721 43.2558L74.2362 43.2317H74.2623L74.2944 43.2177L74.3525 43.1976L74.4167 43.1736C74.7147 43.0484 75.0006 42.8961 75.2707 42.7185H75.2867L75.429 42.6143L75.4771 42.5842L75.5032 42.5601L75.5714 42.51L75.6495 42.4499H75.6596L75.7177 42.3958L75.7778 42.3015L75.8139 42.2675L75.8721 42.2173L75.8821 42.2033L76.0826 42.0028L76.1507 41.9387C76.7607 41.2301 77.2516 40.4271 77.6041 39.5611L77.6302 39.511L77.6462 39.4669L77.6823 39.3767L77.7084 39.3165L77.7244 39.2824L77.7605 39.1882L77.7866 39.1181L77.7966 39.098L77.8607 38.9136L78.414 37.37L78.4301 37.3198L78.4401 37.2898L78.4661 37.2096L78.4862 37.1595L78.4962 37.1294L78.5223 37.0492L78.5443 36.9991L78.5544 36.969L78.5844 36.8888L78.6065 36.8347L78.6165 36.8106L78.6426 36.7365L78.6626 36.6763L78.6726 36.6563L78.8891 36.0368L78.9473 35.8765L79.0054 35.7161L79.1738 35.237L79.2319 35.0826L79.2901 34.9222L79.3482 34.7618L79.4003 34.6015L79.4585 34.4411L79.5166 34.2807L79.5747 34.1203L79.6329 33.96L79.691 33.7996L79.7431 33.6392L79.8013 33.4788L79.8594 33.3185L79.9176 33.1581L79.9757 32.9977L80.0278 32.8373L80.0859 32.677L80.1441 32.5166L80.2022 32.3562L80.2604 32.1958L80.3185 32.0354L80.3706 31.8751L80.4288 31.7147L80.4869 31.5543L80.545 31.3939L80.6032 31.2336L80.7134 30.9188L80.7716 30.7585L81.5293 28.6154L81.5394 28.5854V28.5513L81.5494 28.5112V28.4811V28.4691L81.5594 28.439V28.419V28.4049V28.3648V28.3508V28.3267V28.2867V28.2425V28.2185V28.2045V28.1604V28.1303V28.0681V28.008V27.9839V27.9398V27.8957V27.6151V27.591V27.5209V27.4707V27.4507L81.5494 27.3304V27.3164V27.2663L81.5333 27.172L81.5233 27.1019V27.0818V27.0377L81.4812 26.8373V26.8032L81.4652 26.7691V26.7551L81.401 26.5706L81.3489 26.4363L81.3289 26.3922L81.3068 26.3481L81.2848 26.304L81.2627 26.2739L81.2527 26.2539L81.2427 26.2298L81.2166 26.1897L81.2066 26.1757L81.1905 26.1456L81.1645 26.1055L81.1324 26.0654L81.1224 26.0514L81.1063 26.0274L81.0121 25.9131C81.1468 26.5011 81.1392 27.1128 80.9901 27.6973C79.7739 31.1053 78.5577 34.5133 77.3415 37.9213C75.7778 42.3537 73.1717 42.4238 71.9248 42.502H65.1409C64.1987 42.502 63.5552 42.2675 63.1562 41.8665C63.1837 42.0476 63.237 42.2238 63.3146 42.3897Z" fill="#ECECEC"/>
<path fill-rule="evenodd" clip-rule="evenodd" d="M26.4019 41.9749L26.4219 42.029C26.554 42.4533 26.8111 42.8279 27.1597 43.1035H27.1757L27.2338 43.1436H27.2599L27.308 43.1737L27.3441 43.1937L27.3802 43.2138L27.4323 43.2338H27.4544L27.5285 43.2639C27.8914 43.3942 28.2181 43.3742 28.4086 43.4644L28.7193 43.4844H35.6496L36.1026 43.4543H36.1287L36.7301 43.3742H36.7462H36.7943H36.8103H36.8424L36.9366 43.3541H36.9787H36.9887H37.0408H37.0669H37.093L37.1451 43.3401H37.1932L37.2353 43.326H37.2513L37.3035 43.312H37.3255L37.5941 43.2218L37.963 43.0674L38.0272 43.0434L38.0592 43.0233L38.0953 43.0093L38.1535 42.9752L38.2176 42.9411L38.2437 42.9211L38.2798 42.901L38.3319 42.867H38.3479L38.4121 42.8269L38.4281 42.8128L38.4762 42.7828L38.5243 42.7487H38.5464L38.6105 42.6986H38.6206L38.6787 42.6545L38.7148 42.6304L38.7408 42.6064L38.809 42.5562L38.8772 42.5021L38.9032 42.4821L39.1398 42.2515L39.5086 41.8827L39.5507 41.8325H39.5608L39.5928 41.7985L39.6349 41.7483L39.651 41.7243L39.7993 41.5398L39.8354 41.4857L39.9136 41.3755C40.4189 40.6058 40.8168 39.7709 41.0964 38.8936L41.6978 37.2297H40.8337L40.5892 37.8913C38.9994 42.3578 36.4034 42.4279 35.1484 42.5021H28.3665C27.4243 42.5021 26.7808 42.2676 26.3818 41.8666L26.4019 41.9749Z" fill="#EDEFEE"/>
<path fill-rule="evenodd" clip-rule="evenodd" d="M41.5153 35.6339H42.257L44.7369 28.6836C44.8811 28.0847 44.8866 27.4607 44.7529 26.8594L44.7429 26.8393V26.8193L44.7328 26.7952V26.7812L44.7228 26.7471V26.713L44.7048 26.6649V26.6509L44.6687 26.5566L44.6527 26.5226L44.6366 26.4985V26.4785L44.6266 26.4644L44.5324 26.264L44.4963 26.1998V26.1858L44.4802 26.1657L44.4702 26.1417H44.4602L44.4442 26.1116L44.2918 25.9111C44.4264 26.4992 44.4189 27.1108 44.2698 27.6953L41.7579 34.6196H41.1565L40.7976 35.6219C43.4839 35.6039 40.1361 35.6279 41.5153 35.6339Z" fill="#EDEFEE"/>
<path fill-rule="evenodd" clip-rule="evenodd" d="M26.4019 41.9749L26.4219 42.029C26.554 42.4533 26.8111 42.8279 27.1597 43.1035H27.1757L27.2338 43.1436H27.2599L27.308 43.1737L27.3441 43.1937L27.3802 43.2138L27.4323 43.2338H27.4544L27.5285 43.2639C27.8914 43.3942 28.2181 43.3742 28.4086 43.4644L28.7193 43.4844H35.6496L36.1026 43.4543H36.1287L36.7301 43.3742H36.7462H36.7943H36.8103H36.8424L36.9366 43.3541H36.9787H36.9887H37.0408H37.0669H37.093L37.1451 43.3401H37.1932L37.2353 43.326H37.2513L37.3035 43.312H37.3255L37.5941 43.2218L37.963 43.0674L38.0272 43.0434L38.0592 43.0233L38.0953 43.0093L38.1535 42.9752L38.2176 42.9411L38.2437 42.9211L38.2798 42.901L38.3319 42.867H38.3479L38.4121 42.8269L38.4281 42.8128L38.4762 42.7828L38.5243 42.7487H38.5464L38.6105 42.6986H38.6206L38.6787 42.6545L38.7148 42.6304L38.7408 42.6064L38.809 42.5562L38.8772 42.5021L38.9032 42.4821L39.1398 42.2515L39.5086 41.8827L39.5507 41.8325H39.5608L39.5928 41.7985L39.6349 41.7483L39.651 41.7243L39.7993 41.5398L39.8354 41.4857L39.9136 41.3755C40.4189 40.6058 40.8168 39.7709 41.0964 38.8936L41.6978 37.2297H40.8337L40.5892 37.8913C38.9994 42.3578 36.4034 42.4279 35.1484 42.5021H28.3665C27.4243 42.5021 26.7808 42.2676 26.3818 41.8666L26.4019 41.9749Z" fill="#EDEFEE"/>
<path fill-rule="evenodd" clip-rule="evenodd" d="M41.5153 35.6339H42.257L44.7369 28.6836C44.8811 28.0847 44.8866 27.4607 44.7529 26.8594L44.7429 26.8393V26.8193L44.7328 26.7952V26.7812L44.7228 26.7471V26.713L44.7048 26.6649V26.6509L44.6687 26.5566L44.6527 26.5226L44.6366 26.4985V26.4785L44.6266 26.4644L44.5324 26.264L44.4963 26.1998V26.1858L44.4802 26.1657L44.4702 26.1417H44.4602L44.4442 26.1116L44.2918 25.9111C44.4264 26.4992 44.4189 27.1108 44.2698 27.6953L41.7579 34.6196H41.1565L40.7976 35.6219C43.4839 35.6039 40.1361 35.6279 41.5153 35.6339Z" fill="#EDEFEE"/>
<path fill-rule="evenodd" clip-rule="evenodd" d="M99.6639 26.4643V26.5004V26.5705V26.6207V26.8552V26.8692V26.9755V27.0537V27.0817L99.6499 27.1459L99.5617 27.6731L99.4454 27.9859L99.0445 29.1025L99.0244 29.1446L98.9964 29.2228L98.9342 29.3871V29.4232L98.9142 29.4733L98.8861 29.5515V29.5796L98.8039 29.7941L98.7759 29.8803V29.9024L98.7217 30.0447V30.0728L98.6937 30.1369L98.6055 30.3795V30.3935L95.9192 37.8911C94.3154 42.3616 91.7313 42.4318 90.4724 42.5019H87.9645L86.5612 40.1805L86.4931 40.3649V40.3789L86.473 40.4291L86.459 40.4792V40.5072L86.4309 40.5774L86.3688 40.7558L86.3547 40.7779L86.1162 41.4615L86.1021 41.4835L85.9658 41.8684V41.8825L85.9377 41.9687V41.9827L85.9097 42.0609L85.8756 42.1471L85.8616 42.1752L85.7653 42.4458L85.7513 42.4959L85.7112 42.6162V42.6302L85.6972 42.6723L85.6771 42.7224L85.6571 42.7866L85.6431 42.8086L85.629 42.8588L85.609 42.8948V42.9309L85.5889 42.9871V43.0091L85.5609 43.0733V43.1033L85.4987 43.2597L85.4707 43.3299V43.3439L85.4366 43.4141V43.4281L85.4085 43.4922V43.5203L85.3885 43.5704L85.3744 43.6125L85.3604 43.6486L85.3403 43.6987V43.7268L85.3123 43.7909V43.805L85.2842 43.8772L85.2561 43.9413V43.9634L85.2361 44.0135L85.2221 44.0556V44.0836L85.194 44.1478L85.174 44.2119V44.234L85.1599 44.2761L85.1399 44.3182V44.3402L85.1198 44.4044L85.0657 44.5688L85.0376 44.6409V44.677L85.0176 44.7191L85.0036 44.7692V44.7833V44.8113L84.9895 44.8534L84.9755 44.8955V44.9096L84.9554 44.9597V44.9878L84.9414 45.0599H85.7814L87.1847 41.1588L87.1987 41.1808L87.2608 41.251C87.2608 41.251 87.2749 41.273 87.2809 41.2791L88.0126 42.524L88.0607 42.6022L88.1149 42.6944L88.183 42.8086L88.2572 42.9369L88.3534 43.0933L88.4637 43.2717L88.586 43.4722H90.8553C91.2942 43.4673 91.7323 43.4318 92.1664 43.3659H92.2145H92.2486L92.3027 43.3519H92.3307L92.3989 43.3379H92.4129L92.4891 43.3158H92.5031L92.5793 43.2938H92.5934H92.6214L92.6756 43.2797L92.7638 43.2577L92.852 43.2296L92.9342 43.2016H92.9482L93.0244 43.1735H93.0384L93.1146 43.1374H93.1286L93.1968 43.1093H93.2248L93.279 43.0813L93.313 43.0673L93.3612 43.0452L93.4093 43.0231L93.4434 43.0011L93.4975 42.973L93.5255 42.959L93.5937 42.9229H93.6077L93.6819 42.8808L93.7581 42.8387L93.7781 42.8247L93.8323 42.7886L93.8663 42.7665L93.9064 42.7445L93.9606 42.7024H93.9746C94.8827 42.0769 95.8049 40.9503 96.5306 38.9376C97.7468 35.5282 98.961 32.1202 100.173 28.7136C100.374 28.024 100.398 26.7089 99.702 25.907C99.7116 26.0936 99.6988 26.2807 99.6639 26.4643Z" fill="#EDEFEF"/>
<path fill-rule="evenodd" clip-rule="evenodd" d="M76.1787 51.0001H85.2319C85.4705 50.3305 86.7976 46.5075 86.968 46.1387H86.0939L86.0318 46.3031V46.3251L86.0118 46.3893L85.9917 46.4253V46.4534L85.9717 46.5176L85.9576 46.5597L85.9436 46.5877V46.6158L85.9296 46.6519V46.6799L85.9095 46.722V46.7581L85.8955 46.7862L85.8754 46.8423V46.8564L85.8554 46.9285V46.9426L85.8353 46.9987L85.8153 47.0408V47.0689L85.7872 47.141V47.1551L85.7732 47.1831V47.2112L85.7451 47.2673V47.2814L85.7171 47.3535L85.703 47.3896L85.6148 47.6462L85.5948 47.7184L85.0816 49.1999L85.0615 49.25L85.0415 49.3061L85.0274 49.3562L84.9994 49.4565C84.9454 49.6123 84.913 49.7749 84.9032 49.9396H84.829L84.8149 49.9757H76.5396L76.5195 50.0318L76.4995 50.096L76.4794 50.1461L76.4594 50.2102C76.401 50.4261 76.328 50.6378 76.2409 50.8437V50.8577L76.1787 51.0001Z" fill="#EDEFEF"/>
<path fill-rule="evenodd" clip-rule="evenodd" d="M76.2267 50.8716V50.8575C76.3139 50.6516 76.3869 50.4399 76.4452 50.224L76.2207 50.8716H76.2267ZM84.7467 49.9454H84.8229C84.8327 49.7807 84.8651 49.6181 84.9191 49.4623L84.7487 49.9454H84.7467ZM92.0519 43.404C91.6174 43.4658 91.1796 43.5013 90.7408 43.5103H90.9794C91.2861 43.4742 91.6549 43.4682 92.0519 43.404ZM87.8981 42.556L87.1664 41.3111C87.1664 41.3111 87.1524 41.2891 87.1464 41.2831L87.0842 41.2129L87.8981 42.558V42.556ZM85.6629 45.09H84.8229L84.8369 45.0178L84.7988 45.108H85.6468L85.6629 45.09Z" fill="#1A1A1A"/>
<path fill-rule="evenodd" clip-rule="evenodd" d="M121.818 25.2195H120.956L119.641 28.8881L119.607 28.9823L119.57 29.0946L119.065 29.1126H118.961H118.233L116.642 33.5631L116.626 33.6112L115.495 36.7766L115.485 36.8127L115.469 36.8548L115.443 36.937L115.419 37.0011L115.399 37.0613L115.375 37.1314L115.359 37.1735V37.1916L115.338 37.2517L115.22 37.6527H116.052C116.9 35.2791 117.971 32.274 118.74 30.119C119.478 30.119 119.542 30.137 120.03 30.119L120.098 30.0588L121.818 25.2195Z" fill="#EDEFEF"/>
<path fill-rule="evenodd" clip-rule="evenodd" d="M110.042 46.0965H114.356L117.015 38.6631H116.153L113.867 45.042L113.853 45.0841H110.365C110.277 45.4149 110.042 45.7096 110.042 46.0965Z" fill="#EDEFEF"/>
<path fill-rule="evenodd" clip-rule="evenodd" d="M13.1348 35.7723L13.225 35.7903H13.9727L14.0188 35.668L14.0369 35.632L14.2374 35.0526L14.2654 34.9744L14.2835 34.9484V34.9042L14.4559 34.4311L14.4739 34.369L14.502 34.2988L14.5661 34.1144L14.6022 34.0001L14.6203 33.948L14.6483 33.8778V33.8598L14.6764 33.7716L14.6944 33.7455L14.7125 33.6834L14.7766 33.507L14.8047 33.4548V33.4107L14.8328 33.3225L14.8508 33.2965L14.8688 33.2343L14.9691 32.9717V32.9537L15.8952 30.4739L15.9494 30.2894C16.6871 30.2634 17.4349 30.2714 18.1906 30.2894H18.4452H18.6918L22.4807 30.2373H22.617H22.6531H22.7533H22.8816L23.2465 30.2012L23.3568 30.1832L23.4851 30.1571H23.5853H23.6033L23.8218 30.121H23.8399L23.9582 30.095L24.8322 29.8845L24.9605 29.8584L25.0968 29.8143L25.179 29.7963L25.2251 29.7782L25.3534 29.7341L25.3995 29.7161L25.4817 29.68L25.61 29.6359L25.7283 29.5838L25.8286 29.5497L25.8606 29.4715L25.9789 29.4194L26.0511 29.3933L26.1052 29.3572L26.2235 29.3051L26.2596 29.2871L26.3317 29.243L26.45 29.1808H26.4681L26.5683 29.1187L27.2699 28.6716L27.3241 28.6275L27.4243 28.5493L27.4704 28.5233L27.5245 28.4712L27.6248 28.393L27.6609 28.3749L27.725 28.3128L27.8152 28.2246L27.8433 28.2065L27.9155 28.1364L28.0057 28.0582L28.0337 28.0401L28.0979 27.97L28.1881 27.8737L28.2162 27.8557L28.2803 27.7855L28.3625 27.6973L28.3906 27.6713L28.4547 27.6011L28.5369 27.5049L28.565 27.4708L28.6191 27.4087L28.7013 27.3124L28.7374 27.2603L28.7835 27.2162L28.8557 27.12L28.9098 27.0498L28.9278 27.0137L29.01 26.9175L29.0742 26.8213L29.1463 26.715L29.2105 26.6088V26.5907L29.2746 26.5025L29.3388 26.3883L29.3669 26.3361L29.4029 26.284L29.4671 26.1698L29.5212 26.0815V26.0635L29.5854 25.9492C29.7667 25.6123 29.9248 25.2633 30.0585 24.9048L30.0865 24.8426L30.1046 24.7805L30.1327 24.7183L30.1868 24.5339C30.277 24.2793 30.3873 23.9906 30.4775 23.718L31.4979 20.8914L31.544 20.7591L31.5901 20.6368L31.6362 20.5045L31.6723 20.3822L31.9008 19.7507L31.9188 19.7146L31.965 19.5823L31.983 19.5382L32.0111 19.476V19.458V19.4139L32.0391 19.3618V19.3357L32.0672 19.2655L32.1855 18.9227L32.2757 18.8466L32.2937 18.7684L32.3118 18.7343L32.4842 18.2612V18.2171L32.5203 18.1289L32.5664 18.0066L32.5844 17.9364L32.6486 17.752L32.6846 17.6558V17.6297L32.7207 17.5074L32.7568 17.3851L32.7929 17.2709L32.8109 17.2348L32.829 17.1566L32.857 17.0945L32.9112 16.9461V16.9281L33.0836 16.3567L33.1016 16.2866V16.2244L33.1297 16.1282L33.1477 16.0219L33.1658 15.9598V15.9157L33.1838 15.8195V15.8014L33.2019 15.7132V15.643V15.609L33.2199 15.5027V15.4065V15.3443V15.2782V15.182V15.0757V14.6126L33.2019 14.34L33.1377 13.919V13.8408V13.8228L33.1197 13.7165L33.0294 13.4098V13.3737L33.0014 13.3116V13.2595L32.9733 13.2073L32.9453 13.1552L32.9272 13.1111L32.8991 13.049L32.8811 13.0149L32.845 12.9447V12.9187L32.7989 12.8485V12.8224L32.7809 12.7964L32.7528 12.7442L32.6987 12.656L32.6345 12.5598C32.8991 13.4198 32.8811 14.5004 32.4802 15.7814C31.3515 18.9408 30.4574 21.4326 29.4571 24.2332C26.4961 30.5621 20.6865 29.1227 15.4241 29.2891C14.4839 32.0155 13.3352 35.1047 13.1348 35.7723Z" fill="#ECECEC"/>
<path fill-rule="evenodd" clip-rule="evenodd" d="M1.44946 43.5044H13.3634L13.3815 43.4602L13.3995 43.4081V43.364L13.4316 43.3039L13.4596 43.2337V43.1976V43.1615L13.4877 43.0914V43.0653L13.5158 43.0132L13.5438 42.925L13.5799 42.8288L13.608 42.7325L13.6441 42.6263L13.6802 42.52L13.7162 42.4138L13.7624 42.2995L13.7984 42.1853L13.8445 42.063L13.9267 41.8164L14.6925 39.6112L14.7286 39.4789L14.7647 39.3386L14.8108 39.2063L14.8569 39.074L14.893 38.9417L14.9291 38.8194L14.9652 38.7051V38.679L15.0013 38.5728V38.5467L15.0373 38.4505L15.0554 38.4064L15.0734 38.3282L15.1015 38.2761L15.1195 38.214L15.1476 38.1438L15.1656 38.0997L15.2017 38.0115V37.9854L15.2378 37.8792L15.2659 37.7729L15.2839 37.7469L15.3741 37.4923L15.4022 37.4041L15.4744 37.1755L15.6367 37.0893L15.6548 37.0272L15.6728 36.975L15.727 36.8347H14.8529C14.2335 38.5547 13.0868 41.8645 12.8482 42.514H1.8043L1.44946 43.5044Z" fill="#ECECEC"/>
<path fill-rule="evenodd" clip-rule="evenodd" d="M40.8457 41.4035H47.8962L50.6307 33.7395L53.3911 33.7595L51.3604 39.3727C51.0918 40.6738 51.5949 41.0988 52.0781 41.2712H52.0921L52.1583 41.2912L52.2244 41.3072L52.6674 41.4015H57.9759L58.008 41.2772L58.0481 41.1629L58.0882 41.0547L58.1343 40.9364L58.1804 40.8181L58.2205 40.7098L58.2987 40.4773L58.5412 39.8137L59.3632 37.5123L59.4093 37.368L59.4614 37.2237L59.5075 37.0833L59.6178 36.8027L59.6639 36.6623L59.6959 36.5641H57.9138L57.9338 36.512L59.2208 32.9035C59.2994 32.6925 59.3539 32.4733 59.3832 32.25L59.4033 32.1257V32.1057V32.0275C59.3983 31.8765 59.3849 31.7259 59.3632 31.5764L59.3311 31.4461L59.3171 31.414L59.305 31.398L59.1226 31.0612L59.1026 31.0412L59.0825 31.0091L59.0685 30.9991C58.9509 30.8733 58.8053 30.7771 58.6435 30.7184L58.5974 30.7024C58.4511 30.6587 58.299 30.6377 58.1463 30.6402H56.7109L57.142 30.1892L57.3564 29.9446L57.7574 29.5436L57.8155 29.4815L57.8817 29.4133L57.9478 29.3452L58.014 29.277L58.0862 29.2049L58.1583 29.1367L58.2245 29.0645L58.2967 28.9924L58.3628 28.9202L58.4991 28.7799L58.5653 28.7117L58.7537 28.5112L58.8119 28.4491L58.864 28.3929L58.9161 28.3368L58.9622 28.2807L59.0083 28.2346L59.1326 28.0682H59.1727L59.2188 28.0221H62.1297L62.1437 28.002L62.1577 27.9599L62.1778 27.9178L62.1978 27.8717L62.7331 26.3682L62.7471 26.264L62.7792 26.1697L62.8113 26.0815L62.8373 25.9873L62.8694 25.8931L62.9015 25.8049L62.9335 25.7107L62.9656 25.6164C63.2463 24.7604 63.553 23.8844 63.7675 23.3812L63.7875 23.3251L63.8076 23.279V23.2629L63.8657 23.1025H58.4069L51.7212 30.6743L52.2505 29.2069L52.2906 29.1026L52.3307 28.9944L52.3707 28.8861L52.4489 28.6636L52.489 28.5493L52.5291 28.435L52.5752 28.3168L52.6153 28.1985L52.6614 28.0802L54.1048 24.0468L54.1249 23.9846L54.1449 23.9285L54.3735 23.301L54.3935 23.2449L54.4135 23.1827V23.1667V23.1206H47.375L45.6249 28.0201H47.0803L44.0733 36.4659L44.0592 36.512L44.0392 36.5641H42.5838L40.8537 41.4115L40.8457 41.4035Z" fill="#F0C92B"/>
<path fill-rule="evenodd" clip-rule="evenodd" d="M64.0705 41.4034H70.9787L71.548 41.3613L71.6943 41.3413H71.7324L72.0512 41.2951C72.5785 41.2069 73.0861 41.0264 73.5507 40.7619L73.5728 40.7459L73.7291 40.6516L73.7552 40.6316L73.8153 40.5955L73.8534 40.5694L73.9015 40.5374L73.9456 40.5013L73.9837 40.4752L74.0439 40.4291L74.0659 40.4131L74.1361 40.3569H74.1461L74.2283 40.2888L74.2985 40.2266L74.3205 40.2066L74.3746 40.1605L74.4187 40.1184L74.4508 40.0923L74.511 40.0302L74.527 40.0202L74.5972 39.948V39.938L74.6613 39.8758L74.6934 39.8397L74.7315 39.7976L74.7856 39.7355L74.7956 39.7255L74.8658 39.6473L74.8758 39.6272L74.9299 39.5651L74.976 39.4949L75.0021 39.4628L75.0663 39.3807L75.1264 39.3025L75.1585 39.2604L75.1865 39.2183L75.2467 39.1361L75.3008 39.0579L75.3329 39.0058L75.3589 38.9697L75.4131 38.8815L75.4231 38.8715L75.4672 38.7933L75.5113 38.7251L75.5213 38.7051L75.5754 38.6169L75.5975 38.5808L75.6296 38.5246L75.6777 38.4304L75.7258 38.3482L75.7639 38.2761L75.7739 38.256L75.822 38.1618L75.8441 38.1097L75.8701 38.0676L75.9142 37.9734L75.9303 37.9413L75.9624 37.8731L76.0065 37.7789V37.7629L76.0446 37.6807L76.0887 37.5864L76.1328 37.4922L76.3974 36.7966L76.8304 35.5938L76.8524 35.5156L76.9066 35.3552L76.9346 35.273L76.9567 35.2008V35.1908L76.9888 35.1086L77.0108 35.0405V35.0244L77.0429 34.9422L77.0589 34.8801L77.069 34.86L77.101 34.7779L77.1171 34.7257L77.1271 34.6937L77.1592 34.6115L77.1692 34.5654L77.1852 34.5293L77.2173 34.4471L77.2273 34.405L77.2434 34.3589L77.2754 34.2767L77.3356 34.1103V34.0842L79.8916 26.9294V26.9034L79.9076 26.8673L79.9237 26.7991L79.9457 26.743C80.0332 26.4399 80.0909 26.1291 80.1181 25.8148V25.7888V25.7467V25.6625C80.1385 25.1023 80.0039 24.5473 79.7292 24.0587L79.7011 24.0066L79.6911 23.9966L79.6089 23.8783L79.3924 23.6337L79.3543 23.6076L79.3443 23.5916L79.2962 23.5555L79.2421 23.5194V23.5094L79.198 23.4834L79.1759 23.4673L79.1438 23.4473L79.0296 23.3791L78.9694 23.353L78.9153 23.327L78.8932 23.317L78.8552 23.3009L78.811 23.2809H78.801L78.7409 23.2608H78.7309L78.6868 23.2448L78.6487 23.2348L78.5945 23.2187L78.5625 23.2087L78.4983 23.1927C78.3284 23.1505 78.1542 23.1276 77.9791 23.1245H70.5116C70.2953 23.133 70.0801 23.1591 69.8681 23.2027H69.858H69.842L69.7879 23.2187L69.0521 23.4573L69.0201 23.4673L69.01 23.4773L68.9659 23.4934L68.9278 23.5094L68.8898 23.5255L68.8457 23.5455L68.8136 23.5555L68.7695 23.5756L68.6672 23.6317H68.6572L68.138 23.9424H68.122L68.0037 24.0246L67.9596 24.0587L67.9155 24.0848L67.8774 24.1168L67.8333 24.1489L67.7952 24.181L67.7571 24.2171L67.719 24.2492L67.6749 24.2852L67.6428 24.3113L67.6328 24.3213L67.5887 24.3574L67.5626 24.3775L67.5406 24.3935L67.4965 24.4356L67.4804 24.4456V24.4556L67.4544 24.4717L67.4103 24.5138L67.3622 24.5499L67.3301 24.5819L67.3141 24.592L67.1777 24.7263L67.1076 24.8045L66.3558 25.6805L66.3338 25.7166L66.3017 25.7627L66.2917 25.7828L66.2756 25.8088L66.2476 25.8449C66.0201 26.2625 65.8231 26.696 65.6582 27.1419V27.152L65.6321 27.2201L65.604 27.2983V27.3143L65.578 27.3825L64.7019 29.8864L64.6919 29.9124L64.6699 29.9746L64.6538 30.0307V30.0468L64.6378 30.0828L64.6217 30.135L64.6057 30.1871V30.2071L64.5456 30.3675L64.4914 30.5279L64.4373 30.6883L64.3772 30.8486L64.323 31.009L64.2629 31.1694L64.2088 31.3298L64.1546 31.4901L64.0945 31.6505L64.0404 31.8109L63.9802 31.9713L63.9261 32.1316L63.872 32.292L63.8118 32.4524L63.7577 32.6128L63.6976 32.7732L63.6715 32.8453L63.6495 32.9015V32.9335L63.6394 32.9596L63.6174 33.0157L63.5953 33.0779V33.0879L63.5793 33.14L63.5633 33.1961L63.5412 33.2483V33.2803L63.5192 33.3425L63.455 33.5249L63.433 33.5871L63.4109 33.6432L63.3889 33.7053L63.3728 33.7474V33.7675L63.3508 33.8356L63.3287 33.8978L63.3067 33.9539L63.2846 34.0161L63.2686 34.0582V34.0782L63.2465 34.1404L63.2205 34.2025V34.2185L63.1483 34.2827L63.1262 34.3448L63.1102 34.3909L63.1002 34.407L63.0781 34.4691L63.0561 34.5373V34.5533L62.19 36.9229V36.9489L62.18 36.965L62.17 37.0071L62.154 37.0432V37.0752V37.0853L62.1439 37.1113V37.1274L62.1279 37.1695L62.1179 37.2116V37.2216L62.1078 37.2537L62.0918 37.2958V37.3118V37.3439L62.0758 37.386L62.0597 37.4281V37.4441V37.4702L62.0437 37.5163L62.0277 37.5524L62.0176 37.5985L62.0016 37.6446V37.6546L61.9916 37.6867L61.9815 37.7328L61.9715 37.7588V37.7789L61.9615 37.825V37.835L61.9515 37.8671L61.9415 37.9132L61.9314 37.9593L61.9054 38.0535V38.0736L61.8953 38.1057L61.8853 38.1518V38.1718V38.1979L61.8753 38.244V38.2761V38.2921L61.8653 38.3442V38.3803V38.3903L61.8552 38.4785V38.4886L61.8452 38.5768V38.5868L61.8352 38.675V38.685V38.7371V38.7692V38.7853V38.8374V38.8695V38.8895V38.9617V38.9877V39.0559V39.092V39.2483L61.8452 39.4488V39.4949L61.8933 39.8057C61.9443 40.1237 62.0817 40.4215 62.2907 40.6666C62.4997 40.9116 62.7721 41.0944 63.0781 41.1949H63.1002L63.1643 41.215L63.3267 41.2611L63.3488 41.2711L63.4089 41.2811L63.447 41.2911L63.5011 41.3012L63.5492 41.3112H63.6094L63.6535 41.3212H63.7136H63.7417L64.2348 41.3633L64.0705 41.4034ZM71.129 28.01H73.7592L70.6679 36.6643H68.0378L71.129 28.01Z" fill="#F0C92B"/>
<path fill-rule="evenodd" clip-rule="evenodd" d="M25.3335 40.6616V40.6717L25.3556 40.6917L25.3776 40.7178H25.3876L25.7445 41.0125L25.7665 41.0285C25.9401 41.1297 26.1252 41.2098 26.3178 41.2671H26.3278L26.398 41.2871H26.4201L26.4962 41.3071H26.5183L26.6005 41.3272H26.6326L26.7027 41.3372L27.2821 41.3893H34.1903L34.6714 41.3573L35.4933 41.227H35.5094L35.5535 41.2109H35.5976H35.6136L35.6738 41.1949H35.6838L35.7319 41.1788L35.77 41.1688L35.7981 41.1588L35.8622 41.1428L35.9264 41.1227H35.9484L35.9925 41.1067L36.0406 41.0906L36.0627 41.0806L36.1268 41.0546L36.191 41.0285L36.213 41.0185L36.2611 40.9984L36.3053 40.9824L36.3373 40.9663L36.3975 40.9403L36.4075 40.9303L36.4837 40.8942H36.4937C37.3068 40.4503 37.996 39.8101 38.4984 39.0318C38.5746 38.9236 38.6006 38.8975 38.6608 38.8093C38.7595 38.6483 38.8498 38.4824 38.9314 38.3121C39.1158 37.9553 39.4887 37.0933 39.7874 36.3215L39.8095 36.2653L39.8315 36.2032L39.8536 36.147L39.8937 36.0869L39.9157 36.0308L39.9378 35.9746L39.9598 35.9185L39.9759 35.8664L39.9979 35.8143L40.014 35.7581L40.036 35.706L40.052 35.6539L40.0681 35.6078L40.0841 35.5557L40.1002 35.5095L40.1162 35.4634L40.1322 35.4213L40.1423 35.3752L40.1583 35.3331L40.2184 35.1327H34.6053L34.054 36.6683H31.4258L32.0653 34.8941L32.0813 34.848L32.0974 34.8019L32.1134 34.7558L32.1295 34.7097L32.1455 34.6636L32.1615 34.6175L32.1776 34.5713L32.2317 34.427L32.2477 34.3749L32.2638 34.3228L32.2798 34.2706L32.3019 34.2185L32.3179 34.1664V34.1564L32.3339 34.1203L32.35 34.0682L32.4041 33.9278L32.4201 33.8817L32.4843 33.6813L32.5003 33.6291L32.5164 33.577L32.5264 33.5249H32.5364V33.5089L40.7757 33.5189L42.7283 28.0681C42.9067 27.607 43.031 27.192 43.2094 26.7249C43.6104 25.6725 43.4099 23.6918 41.9264 23.2147L41.742 23.1626L41.2549 23.1064H33.7372L33.0817 23.1846L33.0215 23.2007H32.9895L32.9614 23.2107L32.9073 23.2267H32.8912L32.8592 23.2368L32.8111 23.2468L32.7629 23.2568L32.7188 23.2668C31.9742 23.511 31.2873 23.9046 30.7001 24.4235L30.64 24.4757L30.6239 24.4957L30.5598 24.5478L30.5437 24.5639L30.4836 24.62L30.4676 24.636L30.4134 24.6882L30.3914 24.7082C29.7814 25.3041 29.3086 26.0259 29.0061 26.8232C27.7873 30.2452 26.6245 33.6933 25.3576 37.0893C24.8163 38.5567 24.692 39.8638 25.3475 40.6416L25.3335 40.6616ZM34.5852 27.8135H37.2154L36.213 30.6201H33.5849L34.5852 27.8135Z" fill="#F0C92B"/>
<path fill-rule="evenodd" clip-rule="evenodd" d="M74.7292 48.889H83.7865C84.0271 48.2175 85.3481 44.3945 85.5206 44.0296L83.8627 44.0076C84.013 43.4964 84.843 41.2591 85.6168 39.082L85.7331 39.2825L85.7812 39.3627L85.8433 39.4569L85.9055 39.5592L85.9335 39.6173L85.9756 39.6754L86.2222 40.0924L86.2422 40.1225V40.1445L86.2623 40.1806L86.2763 40.2027L86.2904 40.2247V40.2388L86.3044 40.2528L86.3184 40.2748L86.5189 40.6176L86.561 40.6758L86.5891 40.7279L86.6312 40.8001L86.6652 40.8582L86.6933 40.9103L86.7615 41.0206V41.0346L86.8296 41.1509L86.8637 41.195L86.9038 41.2752L86.98 41.3915H87.3087H88.1106H89.2693L89.6262 41.3774H89.6803L89.8587 41.3634H89.8788H89.967H90.0211H90.1374H90.2116H90.2316H90.2857H90.3399H90.3599H90.394H90.4421H90.4962H90.5163H90.5443H90.5924H90.6466H90.6746H90.6947L90.7488 41.3494H90.7969H90.825H90.839L90.8871 41.3353H90.9413L90.9894 41.3213L91.0295 41.3073L91.0776 41.2932L91.1317 41.2792H91.1658L91.2339 41.2491H91.254L91.3302 41.2191H91.3442L91.4264 41.183L91.5086 41.1529H91.5226L91.5988 41.1228H91.6128L91.689 41.0928L91.7091 41.0787L91.7973 41.0346L91.8514 41.0126L91.8915 40.9905L91.9256 40.9765L91.9877 40.9404H92.0078L92.0759 40.8963L92.1441 40.8522L92.1641 40.8382L92.2183 40.8081L92.2583 40.778L92.2864 40.764L92.3546 40.7119L92.4227 40.6678L92.4428 40.6457L92.4909 40.6156L92.539 40.5715H92.553L92.6152 40.5194L92.6352 40.5054L92.6833 40.4613L92.7315 40.4252L92.7455 40.4112L93.4191 39.6153L93.5293 39.505L93.6115 39.3948L93.6396 39.3587L93.7078 39.2705L93.832 39.07L93.9483 38.9096L93.9764 38.8735V38.8515L94.0526 38.7352L94.0806 38.6831L94.1147 38.6169L94.1348 38.5869L94.1488 38.5568L94.1829 38.4987L94.2169 38.4405L94.245 38.3824L94.2791 38.3243L94.2991 38.2802L94.3132 38.2581L94.3472 38.2L94.3813 38.1338V38.1198L94.4014 38.0757L94.4355 38.0095L94.4635 37.9434L94.4976 37.8772L94.5257 37.8191L94.5457 37.767V37.7529L94.5798 37.6868L94.6079 37.6206L94.6219 37.5905L94.6359 37.5605L94.664 37.4943L94.6921 37.4282V37.3981V37.376V37.362L94.7201 37.3039L94.7482 37.2377L94.7622 37.2076V37.1776L94.7903 37.1114L94.8324 37.0012L94.9086 36.8007L94.9627 36.6403L95.0248 36.4799L95.079 36.3196L95.1331 36.1652L95.2494 35.8444L95.3035 35.6841L95.3576 35.5237L95.4198 35.3633L95.4739 35.2029L95.528 35.0486L95.5902 34.8882L95.6443 34.7278L95.6984 34.5674L95.7606 34.4071L95.8147 34.2467L95.8688 34.0863L95.9851 33.7716L96.0392 33.6112L96.0933 33.4508L96.1555 33.2904L96.2096 33.1301L96.2637 32.9697L96.3259 32.8153L96.38 32.655L96.4341 32.4946L96.4963 32.3342L96.5504 32.1738L96.6045 32.0135L96.6667 31.8531L96.7208 31.6987L96.7749 31.5383L96.8371 31.378L96.8912 31.2176L96.9453 31.0572L97.0075 30.8968L97.0616 30.7365L97.1157 30.5761L97.232 30.2613L97.2861 30.101L97.3483 29.9406L97.4024 29.7802L97.4565 29.6198L97.5107 29.4595L97.5728 29.3051L97.6269 29.1447L97.6811 28.9843L97.7432 28.824L97.7973 28.6636L97.8515 28.5032L97.9136 28.3428L97.9677 28.1885L98.0219 28.0281L98.084 27.8677L98.1321 27.7134L98.1522 27.6412L98.1863 27.561L98.2143 27.4888L98.2424 27.4167V27.4026L98.2705 27.3365L98.2985 27.2703V27.2403L98.3186 27.1961L98.3466 27.124V27.0879L98.3607 27.0578L98.3887 26.9857L98.4028 26.9275L98.4168 26.8914V26.8554L98.4449 26.7892V26.7752L98.4589 26.723L98.4789 26.6569C98.5444 26.4129 98.5861 26.1632 98.6032 25.9111V25.8309L98.5892 25.2616V25.2035V25.1313L98.5752 25.0652V25.007L98.5611 24.9188V24.8827L98.5331 24.7725L98.499 24.6562V24.6422L98.4649 24.5479L98.4509 24.5038L98.4228 24.4457C98.2819 24.1339 98.077 23.8553 97.8214 23.6278L97.5407 23.4273L97.4866 23.3972L97.3844 23.3451L97.3363 23.3231L97.212 23.279H97.1699L97.1157 23.2649L97.0195 23.2349H96.9914L96.39 23.1767H95.8688H93.5253L90.4561 25.6465L90.7027 24.9589L90.7167 24.9008L90.7308 24.8787L91.3121 23.1687H83.9368V23.1827V23.1968V23.2268L83.9228 23.2569L83.9088 23.293L83.8947 23.3371L83.8607 23.4313L83.8406 23.4895L83.8125 23.5476L83.7925 23.6137L83.7644 23.6799L83.7364 23.7521L83.7083 23.8242L83.6802 23.9044L83.6462 23.9926L83.6181 24.0728L83.584 24.167L83.5499 24.2553L83.5159 24.3495L83.4818 24.4437L83.4397 24.5459L83.4056 24.6402L83.3715 24.7424L83.3294 24.8527L83.2893 24.9549L83.2552 25.0571L83.2151 25.1674L83.1731 25.2776L83.133 25.3879L83.0929 25.4982L83.0508 25.6084L83.0107 25.7187L82.9706 25.8289L82.9365 25.9392L82.8964 26.0414L82.8543 26.1517L82.8142 26.262L82.7801 26.3642L82.74 26.4664L82.6979 26.5687L82.6639 26.6709L82.5877 26.8714L82.5536 26.9656L82.5195 27.0598L82.3932 27.2663L82.3652 27.3465L82.1386 27.968V27.998V28.0201H83.7684L83.7544 28.0642H83.7825L83.6722 28.3047L83.6582 28.3348L83.6381 28.401L83.6181 28.4531L83.598 28.5112L83.5359 28.6937L83.4878 28.826L83.4738 28.8781L83.4597 28.9001L82.313 32.0776L82.293 32.1357L82.2729 32.2019L82.2529 32.26L82.2328 32.3182L82.2128 32.3843V32.3984L82.1927 32.4425V32.4785L82.1787 32.5086L82.1587 32.5668L82.1386 32.6329L82.1186 32.691L82.0985 32.7572L82.0845 32.7933L82.0705 32.8153L82.0504 32.8815L82.0304 32.9396L82.0103 33.0058L81.9422 33.1882L81.9221 33.2463L79.8934 38.9537L79.7911 39.2384L79.6889 39.5231L79.5927 39.7997L79.5385 39.938L79.4964 40.0704L79.4563 40.1806L78.5843 42.5381L78.5081 42.7506L78.4319 42.9511L78.3638 43.1416L78.2956 43.332L78.2675 43.4042L78.2275 43.5144V43.5285L78.1793 43.6608V43.6828L78.1372 43.7931L78.0971 43.9394H78.0831L78.0631 43.9976C76.4733 44.0417 76.9124 44.0276 76.4733 44.0417C76.4332 44.0417 76.4112 44.0417 76.3911 44.0858L76.2669 44.4065V44.4366V44.4506L76.2528 44.4947L76.2388 44.5388L76.2248 44.591L76.2107 44.6431L76.1907 44.7012L76.1706 44.7533L76.1506 44.8195L76.1305 44.8917L76.1025 44.9638L76.0824 45.036L76.0544 45.1162L76.0343 45.1964C75.8759 45.7437 75.5552 46.6718 75.2525 47.4918L75.2124 47.608L75.1783 47.7103L75.1442 47.7985V47.8125L75.1101 47.9228L75.0821 47.9949L75.068 48.025L75.034 48.1273L75.0139 48.1994L74.9999 48.2295L74.9658 48.3177L74.9377 48.4119L74.9097 48.5001L74.8696 48.6244L74.8355 48.7126L74.8074 48.7788L74.7874 48.851L74.7292 48.889ZM89.5821 28.0121H92.2163L89.129 36.6624H86.4928L89.5821 28.0121Z" fill="#F0C92B"/>
<path fill-rule="evenodd" clip-rule="evenodd" d="M97.4285 43.9875H100.007L100.931 41.4014H100.987H109.477C109.505 41.4014 109.463 41.5618 109.373 41.8024L109.344 41.8846L109.316 41.9608V41.9848L109.288 42.049L109.256 42.1011L109.236 42.1492L109.208 42.2134L109.194 42.2374L109.16 42.3316L108.585 43.787L108.571 43.8111V43.8712V43.9835H112.915L115.569 36.5661H114.238C115.128 34.0923 116.403 30.4939 117.293 28.0221C118.049 28.0221 118.095 28.0401 118.624 28.01C119.214 26.3822 119.795 24.7504 120.376 23.1226H104.062L104.048 23.1586L104.034 23.2068L104.02 23.2549C103.874 23.7641 103.495 24.7764 103.124 25.7648L103.09 25.859L103.056 25.9532L103.022 26.0474L102.988 26.1416L102.953 26.2298L102.919 26.3241L102.885 26.4183L102.851 26.5065L102.823 26.5947L102.789 26.6829L102.727 26.8613L102.699 26.9435L102.531 27.4166L102.502 27.4868L102.482 27.5509L102.462 27.6211L102.442 27.6813L102.422 27.7454L102.402 27.8055L102.346 28.006H103.972L103.783 28.3969L103.755 28.4611L103.721 28.5252L103.693 28.6014L103.643 28.6696L103.601 28.7518L103.567 28.834L103.525 28.9222L103.483 29.0104L102.039 32.0776L101.991 32.1778L101.59 33.0178L101.562 33.0779L101.534 33.1381L101.422 33.3866L101.233 33.7655L101.163 33.9019L101.135 33.966L99.9324 36.51H99.9184L99.8903 36.5641H98.3286L96.346 42.0911L96.2558 42.3156L96.2357 42.3757L96.2157 42.4299L96.1956 42.49L96.1756 42.5501L96.1555 42.6043L96.1355 42.6644L96.1155 42.7246L96.0954 42.7847L96.0814 42.8388L96.0613 42.899L96.0413 42.9591L96.0212 43.0192L96.0072 43.0613C95.9335 43.3228 95.8397 43.5782 95.7265 43.8251L95.6704 43.9915L97.4366 44.0096L97.4285 43.9875ZM109.525 28.0682H111.57L108.525 36.4879H105.489L109.525 28.0682Z" fill="#F0C92B"/>
<path fill-rule="evenodd" clip-rule="evenodd" d="M0 41.4036H11.92V41.3575L11.938 41.3114L11.9561 41.2552L12.2287 40.4974L12.2668 40.3952L14.071 35.2491L14.2474 34.7419V34.7059L12.1565 34.6878L12.2407 34.4653V34.4472L12.2969 34.2708V34.2528V34.2167L12.3149 34.1526L12.343 34.0784L12.361 34.0323V34.0142V33.9962V33.9401L12.3891 33.8659L12.4071 33.8298V33.7837L12.4993 33.5351L12.5274 33.4429V33.4248L12.5555 33.3607L12.5835 33.2685L12.6016 33.2224L12.6196 33.1662L12.6577 33.074L12.6858 33.0179V32.9718L12.798 32.657L12.8361 32.5548L12.9564 32.222L12.9945 32.1118L13.0406 31.9915L13.207 31.5204L13.2531 31.4001L13.2992 31.2698L13.4295 30.9009L13.4756 30.7706L13.5217 30.6403L13.5678 30.52L13.6139 30.3897L13.66 30.2594L13.7062 30.1291L13.7523 29.9908L13.7984 29.8605L13.8445 29.7302L13.8906 29.6019L13.9367 29.4716L13.9928 29.3413L14.0389 29.2029L14.085 29.0746L14.1312 28.9443L14.1773 28.814L14.2234 28.6757L14.2695 28.5454L14.3156 28.4151L14.3617 28.2848L14.4078 28.1645C16.212 28.1004 18.0965 28.2467 19.8887 28.1926H20.1292L20.3698 28.1745H20.6204L20.8609 28.1565L21.0935 28.1384L21.3341 28.1104L21.5746 28.0823L22.7353 27.8818L22.8556 27.8538L22.9679 27.8257H22.9859L23.1162 27.7976L23.1904 27.7696H23.2465L23.3768 27.7335L23.4149 27.7155C23.8616 27.5776 24.2966 27.4047 24.716 27.1982L24.8283 27.1421L24.9124 27.086H24.9405L25.0528 27.0218L25.127 26.9857L25.165 26.9577L25.2773 26.8835L25.4998 26.7352H25.5279C26.0537 26.3644 26.5342 25.9331 26.9593 25.4501L27.0154 25.394L27.0434 25.3479L27.294 25.0432L27.3582 24.969L27.6008 24.6182L27.6749 24.5079L27.7391 24.3977L27.8133 24.2874L27.8313 24.2593L27.8774 24.1771L27.9416 24.0569L27.9796 24.0007L28.0077 23.9446L28.0719 23.8243L28.128 23.7321V23.704L28.1841 23.5938L28.2483 23.4735L28.2663 23.4555L28.4668 22.9844L28.5049 22.9022V22.8561L28.5329 22.7819L28.561 22.7358L28.5891 22.6436L28.6071 22.6075L28.6352 22.5153V22.4872L28.6733 22.3849V22.3569L28.7114 22.2546L28.7575 22.1243L28.8036 21.994L28.8497 21.8657L28.8958 21.7354L28.9419 21.6051L28.988 21.4848L29.0261 21.3545L29.0722 21.2242L29.2687 21.0518L29.3148 20.9315L29.3609 20.8012L29.407 20.6709L29.4531 20.5506L29.4992 20.4203L29.5373 20.29L29.5834 20.1697L29.6295 20.0394L29.6756 19.9091L29.7217 19.7808L29.7678 19.6606L29.8139 19.5302L29.8601 19.4019L29.9904 19.0231L30.0365 18.8928L30.0826 18.7624L30.1287 18.6321L30.1668 18.5499V18.5038L30.3051 18.1149L30.3332 18.0588L30.3512 17.9846L30.3973 17.8463L30.4154 17.8182L30.4434 17.716L30.4895 17.5857L30.5356 17.4554L30.5818 17.3171L30.6379 17.1867L30.684 17.0484L30.7301 16.9101L30.7762 16.7798L30.8223 16.6415L30.8784 16.5031L30.9246 16.3648L30.9707 16.2265L31.0268 16.0882L31.0729 15.9498L31.119 15.8115L31.1751 15.6732L31.2213 15.5248L31.2774 15.3865L31.3235 15.2382L31.3796 15.0998L31.4939 14.8372L31.6944 14.1536L31.7505 13.867L31.7685 13.8108V13.7547L31.7866 13.6525V13.6344L31.8608 12.8867V12.5158V12.3314V12.2572V12.2311V12.1389V12.1108V12.0467V11.9725V11.9084V11.8803V11.8522V11.7881L31.8427 11.7239V11.7059L31.8247 11.6137V11.5956L31.8066 11.5315L31.7886 11.4753V11.4473L31.7705 11.3651L31.7425 11.2909L31.6342 11.2288V11.1927L31.5961 11.1105L31.5681 11.0283L31.55 11.0002L31.532 10.9441L31.4939 10.888V10.8599L31.4558 10.7857L31.4177 10.7116L31.3997 10.6835L31.3716 10.6374L31.3335 10.5812V10.5632L31.2774 10.489L31.2213 10.4249L31.2032 10.3968L31.1651 10.3507L31.127 10.3046L31.109 10.2765L31.0529 10.2124L30.9887 10.1482L30.9707 10.1302L30.9246 10.0741L30.9065 10.056L30.8604 10.0199L30.8143 9.97382L30.7963 9.95578L30.7321 9.89965L30.6579 9.8355L30.5838 9.77937H30.5657L30.5096 9.72323L30.4715 9.70519L30.4254 9.66911L30.3693 9.64104C29.5647 9.14419 28.6386 8.87918 27.693 8.87524H27.0615C23.1042 8.91133 19.1088 8.87524 15.1616 8.87524H11.6273C11.5892 8.97748 9.28579 15.148 9.1194 15.6371H11.1862C9.76491 19.6646 5.8818 30.7586 4.39431 34.76C2.38961 34.7139 4.37627 34.7961 2.36956 34.76C2.33147 34.8702 2.19315 35.2491 0 41.4657L0 41.4036ZM19.0086 15.6672H23.3748L20.9692 22.4471H16.5929L19.0086 15.6672Z" fill="#F0CA2B"/>
</g>
<defs>
<clipPath id="clip0">
<rect width="125.214" height="52" fill="white"/>
</clipPath>
</defs>
</svg>
