<svg width="40" height="40" viewBox="0 0 40 40" fill="none" xmlns="http://www.w3.org/2000/svg">
<g clip-path="url(#clip0)">
<path d="M31.6131 24.7789C30.7942 23.9262 29.8065 23.4703 28.7597 23.4703C27.7213 23.4703 26.7251 23.9177 25.8724 24.7704L23.2046 27.4297C22.9851 27.3115 22.7656 27.2018 22.5546 27.092C22.2507 26.9401 21.9636 26.7966 21.7188 26.6446C19.2199 25.0574 16.9489 22.9891 14.7708 20.3129C13.7155 18.979 13.0064 17.8562 12.4914 16.7165C13.1837 16.0833 13.8253 15.4248 14.45 14.7916C14.6864 14.5553 14.9228 14.3104 15.1592 14.0741C16.932 12.3012 16.932 10.0049 15.1592 8.232L12.8544 5.92726C12.5927 5.66555 12.3226 5.3954 12.0693 5.12524C11.5627 4.60182 11.0309 4.06152 10.4821 3.55498C9.66324 2.74452 8.68393 2.31396 7.65398 2.31396C6.62402 2.31396 5.62783 2.74452 4.7836 3.55498C4.77516 3.56342 4.77516 3.56342 4.76672 3.57186L1.89634 6.46756C0.815734 7.54817 0.199448 8.86517 0.0643713 10.3932C-0.138243 12.8584 0.587792 15.1547 1.14498 16.6574C2.51263 20.3467 4.55566 23.7658 7.60332 27.4297C11.301 31.845 15.7501 35.3317 20.8324 37.7884C22.7741 38.7086 25.3659 39.7977 28.2616 39.9834C28.4389 39.9918 28.6246 40.0003 28.7934 40.0003C30.7436 40.0003 32.3814 39.2996 33.6646 37.9066C33.6731 37.8897 33.6899 37.8813 33.6984 37.8644C34.1374 37.3325 34.6439 36.8513 35.1758 36.3363C35.5388 35.9902 35.9103 35.6272 36.2733 35.2473C37.1091 34.3777 37.5481 33.3646 37.5481 32.3262C37.5481 31.2794 37.1006 30.2748 36.248 29.4305L31.6131 24.7789ZM34.6355 33.6686C34.627 33.6686 34.627 33.677 34.6355 33.6686C34.3062 34.0231 33.9685 34.344 33.6055 34.6985C33.0568 35.2219 32.4996 35.7707 31.9762 36.387C31.1235 37.2987 30.1189 37.7293 28.8019 37.7293C28.6752 37.7293 28.5402 37.7293 28.4135 37.7209C25.9062 37.5605 23.5761 36.5812 21.8286 35.7454C17.0502 33.4322 12.8544 30.1481 9.36776 25.9861C6.48894 22.5163 4.5641 19.3083 3.28932 15.8638C2.50419 13.7617 2.21715 12.1239 2.34379 10.579C2.42821 9.59121 2.80811 8.7723 3.50882 8.0716L6.38763 5.19278C6.80131 4.80444 7.2403 4.59338 7.67086 4.59338C8.20272 4.59338 8.63328 4.91419 8.90343 5.18434C8.91187 5.19278 8.92032 5.20122 8.92876 5.20967C9.44374 5.69087 9.93339 6.18897 10.4484 6.72083C10.7101 6.99098 10.9802 7.26114 11.2504 7.53973L13.5551 9.84447C14.45 10.7394 14.45 11.5667 13.5551 12.4616C13.3103 12.7064 13.0739 12.9512 12.8291 13.1876C12.1199 13.9136 11.4446 14.589 10.7101 15.2475C10.6932 15.2644 10.6763 15.2729 10.6679 15.2897C9.94183 16.0158 10.0769 16.7249 10.2289 17.2061C10.2373 17.2315 10.2458 17.2568 10.2542 17.2821C10.8536 18.7342 11.6978 20.1018 12.981 21.7312L12.9895 21.7396C15.3196 24.61 17.7763 26.8472 20.4862 28.561C20.8324 28.7805 21.1869 28.9578 21.5246 29.1266C21.8286 29.2786 22.1156 29.4221 22.3604 29.5741C22.3942 29.591 22.428 29.6163 22.4617 29.6332C22.7488 29.7767 23.0189 29.8442 23.2975 29.8442C23.9982 29.8442 24.4372 29.4052 24.5807 29.2617L27.468 26.3744C27.755 26.0874 28.2109 25.7413 28.7428 25.7413C29.2662 25.7413 29.6968 26.0705 29.9585 26.3576C29.9669 26.366 29.9669 26.366 29.9753 26.3744L34.627 31.0261C35.4966 31.8873 35.4966 32.7737 34.6355 33.6686Z" fill="#F0CA2B"/>
<path d="M21.6163 9.51505C23.8282 9.88651 25.8374 10.9334 27.4415 12.5374C29.0455 14.1414 30.0839 16.1507 30.4638 18.3626C30.5567 18.9197 31.0379 19.3081 31.5866 19.3081C31.6542 19.3081 31.7133 19.2997 31.7808 19.2912C32.4055 19.1899 32.8192 18.5989 32.7179 17.9742C32.262 15.298 30.9957 12.8582 29.0624 10.9249C27.1291 8.99163 24.6893 7.72529 22.0131 7.26941C21.3883 7.1681 20.8058 7.58177 20.6961 8.19806C20.5863 8.81435 20.9916 9.41375 21.6163 9.51505Z" fill="#F0CA2B"/>
<path d="M39.9532 17.6452C39.2018 13.2383 37.125 9.22826 33.9338 6.03708C30.7426 2.8459 26.7326 0.769104 22.3257 0.0177417C21.7094 -0.0920079 21.1269 0.330106 21.0171 0.946392C20.9158 1.57112 21.3295 2.15364 21.9542 2.26339C25.8883 2.93033 29.4763 4.79607 32.3298 7.64111C35.1833 10.4946 37.0406 14.0826 37.7075 18.0167C37.8004 18.5739 38.2816 18.9622 38.8303 18.9622C38.8979 18.9622 38.957 18.9538 39.0245 18.9453C39.6408 18.8525 40.0629 18.2615 39.9532 17.6452Z" fill="#F0CA2B"/>
</g>
<defs>
<clipPath id="clip0">
<rect width="40" height="40" fill="white"/>
</clipPath>
</defs>
</svg>
