<svg width="13" height="12" viewBox="0 0 13 12" fill="none" xmlns="http://www.w3.org/2000/svg">
<g clip-path="url(#clip0)">
<path d="M11.9586 3.18294C11.8234 2.68029 11.4271 2.28409 10.9245 2.14874C10.0063 1.89746 6.33359 1.89746 6.33359 1.89746C6.33359 1.89746 2.66094 1.89746 1.74276 2.13916C1.24987 2.27442 0.843911 2.68038 0.70865 3.18294C0.467041 4.10103 0.467041 6.00508 0.467041 6.00508C0.467041 6.00508 0.467041 7.9187 0.70865 8.82722C0.844001 9.32977 1.24021 9.72607 1.74285 9.86142C2.67061 10.1127 6.33368 10.1127 6.33368 10.1127C6.33368 10.1127 10.0063 10.1127 10.9245 9.87099C11.4272 9.73573 11.8234 9.33944 11.9587 8.83688C12.2003 7.9187 12.2003 6.01474 12.2003 6.01474C12.2003 6.01474 12.21 4.10103 11.9586 3.18294Z" fill="white"/>
<path d="M5.16431 7.76416L8.2184 6.00513L5.16431 4.24609V7.76416Z" fill="#838485"/>
</g>
<defs>
<clipPath id="clip0">
<rect width="11.7333" height="11.7333" fill="white" transform="translate(0.467041 0.133057)"/>
</clipPath>
</defs>
</svg>
