<?xml version="1.0" encoding="utf-8"?><svg xmlns="http://www.w3.org/2000/svg" xmlns:xlink="http://www.w3.org/1999/xlink"><symbol viewBox="0 0 12 12" id="clock" xmlns="http://www.w3.org/2000/svg"><path d="M6 0C2.691 0 0 2.691 0 6s2.691 6 6 6 6-2.691 6-6-2.691-6-6-6zm2.854 9.103a.499.499 0 01-.707 0l-2.5-2.5A.498.498 0 015.5 6.25V3a.5.5 0 111 0v3.043l2.354 2.353a.5.5 0 010 .707z"/></symbol><symbol viewBox="0 0 12 12" id="location" xmlns="http://www.w3.org/2000/svg"><path d="M5.898.37a3.915 3.915 0 00-3.91 3.91c0 2.71 3.914 7.34 3.914 7.34S9.81 6.855 9.81 4.28A3.915 3.915 0 005.899.37zm1.18 5.055a1.664 1.664 0 01-1.18.487c-.427 0-.854-.162-1.18-.487a1.67 1.67 0 011.18-2.849 1.67 1.67 0 011.18 2.848z"/></symbol></svg>