<svg width="70" height="70" viewBox="0 0 70 70" fill="none" xmlns="http://www.w3.org/2000/svg">
<path d="M66.9917 36.9914C65.074 34.9644 62.4833 33.7407 59.6956 33.5447L59.0234 33.4791C58.9903 33.4759 58.957 33.4743 58.9237 33.4743C57.8834 33.4743 56.8349 33.6396 55.7358 33.9784L54.9408 33.1833C55.5187 31.7395 55.206 30.0537 54.0703 28.9181L53.9354 28.7819C53.1201 27.9664 52.0244 27.5731 50.9403 27.6249C50.9926 26.5403 50.5986 25.4461 49.7846 24.631L49.6529 24.4994C48.8372 23.6848 47.7412 23.291 46.6582 23.3434C46.7107 22.2585 46.3167 21.1644 45.5025 20.349L45.3709 20.2173C44.5557 19.4033 43.4608 19.0101 42.3767 19.0619C42.4292 17.9761 42.0341 16.8806 41.2169 16.0634L41.0886 15.9362C39.9467 14.7929 38.2567 14.4803 36.8155 15.0611L36.0227 14.269C36.3612 13.1781 36.5266 12.129 36.5266 11.08C36.5266 11.0487 36.5253 11.0175 36.5224 10.9863L36.4605 10.3112C36.3499 8.7347 35.9169 7.23052 35.1737 5.84009C34.9067 5.34052 34.2853 5.15226 33.786 5.41913C33.2865 5.68601 33.0981 6.30739 33.365 6.80669C33.9727 7.94365 34.3262 9.17412 34.4154 10.4642C34.416 10.4719 34.4165 10.4794 34.4172 10.487L34.4757 11.1252C34.47 12.1149 34.2764 13.1189 33.8844 14.1928C33.7477 14.5675 33.8407 14.9875 34.1229 15.2697L35.1384 16.2845L30.6719 20.7514L29.6569 19.7363C29.3736 19.4532 28.9516 19.3605 28.5758 19.5C27.524 19.8895 26.5173 20.082 25.5007 20.0881L24.8817 20.0263C24.8716 20.0254 24.8615 20.0244 24.8514 20.0237C20.1361 19.6996 16.4425 15.7709 16.4425 11.0798C16.4425 10.2424 16.5631 9.41269 16.8022 8.5999L22.3621 14.1485C22.7666 14.5703 23.2783 14.8955 23.9161 15.1389C24.4168 15.3358 24.933 15.4357 25.4509 15.4357C26.6204 15.4357 27.7188 14.9814 28.5357 14.1646C29.7365 12.991 30.1363 11.1814 29.5541 9.55447C29.5471 9.53492 29.5398 9.51592 29.5316 9.49691C29.3553 9.08457 29.0608 8.47945 28.5364 7.97496L22.9826 2.41788C23.7909 2.17383 24.6165 2.05079 25.4508 2.05079C27.5039 2.05079 29.4345 2.72672 31.0338 4.00559C31.4762 4.35929 32.1214 4.28751 32.4751 3.84509C32.8287 3.4028 32.7569 2.75762 32.3146 2.40393C30.3478 0.831252 27.9743 0 25.4508 0C23.8215 0 22.2246 0.375704 20.7044 1.11686C20.4067 1.26205 20.1973 1.54219 20.1425 1.86909C20.0878 2.19584 20.1943 2.52889 20.4285 2.76336L27.0936 9.43252C27.0993 9.43826 27.1051 9.44387 27.1109 9.44947C27.3047 9.63445 27.4663 9.88916 27.6329 10.2731C27.9318 11.1403 27.7248 12.0892 27.0939 12.7061C26.6561 13.1438 26.0726 13.3848 25.4508 13.3848C25.191 13.3848 24.9273 13.3328 24.6568 13.2266C24.2962 13.0889 24.0283 12.9247 23.8382 12.7247C23.832 12.7182 23.8257 12.7117 23.8194 12.7054L17.1366 6.03628C16.9009 5.80099 16.5657 5.69517 16.2377 5.75163C15.9097 5.80837 15.6294 6.02083 15.4864 6.32134C14.7599 7.84767 14.3916 9.44865 14.3916 11.0797C14.3916 13.8998 15.4573 16.5792 17.3925 18.6244C18.9547 20.2753 20.9662 21.3926 23.1691 21.8555C22.3913 23.6643 22.6925 25.8411 24.0616 27.3619L21.6811 29.7424C20.7923 30.6304 20.3027 31.8114 20.3027 33.0677C20.3027 34.2305 20.7221 35.329 21.4885 36.1899L17.7957 39.8827L15.5881 37.6751C15.1878 37.2748 14.5385 37.2748 14.1381 37.6751L8.62681 43.1849C8.62435 43.1874 8.62229 43.1901 8.61997 43.1925L0.301985 51.5108C-0.0984645 51.9114 -0.0984645 52.5605 0.301985 52.961L6.69579 59.3548C7.09624 59.7551 7.74552 59.7551 8.14583 59.3548C8.54628 58.9542 8.54628 58.3051 8.14583 57.9046L2.47719 52.236L10.1567 44.5565L25.4454 59.8452L17.7659 67.5247L11.0024 60.7611C10.6021 60.3608 9.95284 60.3608 9.55239 60.7611C9.15194 61.1617 9.15194 61.8108 9.55239 62.2113L17.0409 69.6998C17.2331 69.892 17.494 70 17.7659 70C18.0379 70 18.2987 69.892 18.4909 69.6998L26.8037 61.3871C26.8084 61.3827 26.8133 61.3789 26.8178 61.3744L32.3269 55.8638C32.5193 55.6714 32.6273 55.4107 32.6273 55.1386C32.6273 54.8666 32.5193 54.606 32.3269 54.4135L30.647 52.7336L34.4117 48.968C36.0156 49.9953 38.1051 49.9636 39.7028 48.7973C40.1602 48.4635 40.2603 47.822 39.9264 47.3647C39.5926 46.9073 38.9511 46.807 38.4938 47.141C37.4336 47.9147 35.9891 47.8012 35.0587 46.8707C34.8663 46.6785 34.6056 46.5705 34.3335 46.5705C34.0615 46.5705 33.8007 46.6786 33.6084 46.8708L29.1969 51.2834L19.2462 41.3328L23.6576 36.9212C24.0576 36.5211 24.058 35.8726 23.6585 35.472L23.1312 34.9432C22.6298 34.442 22.3538 33.7757 22.3538 33.0674C22.3538 32.3591 22.6298 31.6934 23.1312 31.1926L26.2281 28.0952C26.2294 28.094 26.2307 28.093 26.232 28.0918C26.2332 28.0906 26.2342 28.0892 26.2354 28.088L31.3902 22.9326C31.3924 22.9304 31.3949 22.9285 31.3972 22.9263C31.3995 22.9241 31.4013 22.9216 31.4035 22.9193L36.9374 17.3851C37.0203 17.3021 37.1087 17.2285 37.2068 17.1618C37.9636 16.6387 38.9858 16.7324 39.6415 17.3889L39.7704 17.5166C40.4226 18.1687 40.5164 19.1919 39.9926 19.9507C39.9286 20.0437 39.8548 20.1322 39.7737 20.2136C39.7725 20.2149 39.7711 20.216 39.7699 20.2172L33.665 26.3221C33.2645 26.7227 33.2645 27.3718 33.665 27.7723C33.8651 27.9724 34.1276 28.0725 34.39 28.0725C34.6524 28.0725 34.9149 27.9724 35.115 27.7723L41.2147 21.6724C41.2165 21.6706 41.2184 21.6691 41.2202 21.6675C41.3028 21.5849 41.3928 21.51 41.4879 21.4444C42.2452 20.9218 43.2685 21.0159 43.921 21.6674L44.0518 21.7981C44.7035 22.4506 44.7975 23.4737 44.271 24.2367C44.2093 24.3276 44.1357 24.4158 44.0525 24.499C44.0523 24.4991 44.0521 24.4992 44.0519 24.4994L37.9472 30.6041C37.5467 31.0047 37.5467 31.6539 37.9472 32.0543C38.1473 32.2545 38.4098 32.3546 38.6722 32.3546C38.9345 32.3546 39.197 32.2545 39.3972 32.0543L45.5017 25.9498C45.502 25.9495 45.5021 25.9494 45.5024 25.9491C45.5856 25.8659 45.674 25.7923 45.7713 25.7261C46.5281 25.204 47.551 25.2979 48.2031 25.9491L48.3338 26.0798C48.9856 26.7324 49.0796 27.7553 48.553 28.5184C48.4912 28.6094 48.4176 28.6979 48.3342 28.7813C48.3329 28.7826 48.3318 28.7841 48.3306 28.7854L42.2295 34.8863C41.829 35.2869 41.829 35.936 42.2295 36.3365C42.4296 36.5367 42.6921 36.6367 42.9545 36.6367C43.2169 36.6367 43.4794 36.5367 43.6795 36.3365L49.7844 30.2317C49.7854 30.2308 49.7863 30.2295 49.7873 30.2286C49.8697 30.1464 49.9571 30.0737 50.0534 30.0082C50.8105 29.4856 51.8333 29.579 52.4815 30.2275L52.6164 30.3638C53.2675 31.0148 53.3615 32.0374 52.84 32.7952C52.7721 32.8938 52.699 32.9818 52.6164 33.0644L41.262 44.4189C40.8616 44.8194 40.8615 45.4685 41.2619 45.869C41.4621 46.0692 41.7246 46.1693 41.9871 46.1693C42.2494 46.1693 42.5118 46.0692 42.7121 45.8691L47.801 40.7801L48.3658 41.3448C48.0329 42.4093 47.8646 43.4857 47.8646 44.5533C47.8646 44.5853 47.8661 44.6174 47.8691 44.6493L47.9309 45.3055C48.1263 48.0998 49.3494 50.6936 51.3757 52.611C53.4214 54.5465 56.1021 55.6125 58.9238 55.6125C60.5467 55.6125 62.1457 55.2439 63.6771 54.5168C63.978 54.374 64.1908 54.0938 64.2477 53.7657C64.3047 53.4376 64.1986 53.1021 63.9633 52.8664L57.2941 46.1808C57.2895 46.1763 57.285 46.1718 57.2803 46.1671C57.0085 45.9049 56.8625 45.5929 56.7879 45.3773C56.7854 45.3702 56.7828 45.3631 56.7802 45.3561C56.4544 44.4781 56.649 43.5416 57.2908 42.9087C57.7335 42.4689 58.3134 42.2266 58.9237 42.2266C59.1897 42.2266 59.4499 42.2775 59.6968 42.3778C59.705 42.3811 59.7134 42.3845 59.7216 42.3875C60.095 42.5282 60.3577 42.6871 60.5483 42.8878C60.5543 42.8941 60.5605 42.9004 60.5666 42.9065L67.2372 49.5755C67.4716 49.8102 67.8055 49.9171 68.1324 49.8616C68.4596 49.8066 68.7397 49.5966 68.8846 49.2983C69.6243 47.7745 69.9993 46.1784 69.9993 44.5534C69.9993 41.7271 68.9312 39.0413 66.9917 36.9914ZM28.4713 53.4585C28.4714 53.4586 28.4717 53.4589 28.4718 53.4592C28.472 53.4595 28.4723 53.4596 28.4725 53.4597L30.1517 55.1389L26.8959 58.3954L11.6066 43.1061L14.8631 39.8503L17.0702 42.0574C17.0704 42.0576 17.0706 42.0579 17.0708 42.0582C17.0711 42.0585 17.0714 42.0586 17.0717 42.0589L28.4713 53.4585ZM25.5163 25.9073C24.6161 24.8342 24.5588 23.2705 25.3512 22.134C25.3843 22.1371 25.4175 22.1389 25.4508 22.1389C26.5072 22.1389 27.5832 21.9705 28.6575 21.6374L29.2216 22.2015L25.5163 25.9073ZM67.5817 47.0207L62.025 41.4652C61.6231 41.0458 61.1097 40.7212 60.4566 40.4735C59.9668 40.2763 59.4511 40.1763 58.9237 40.1763C57.768 40.1763 56.6747 40.6302 55.8482 41.4516C54.6478 42.6349 54.258 44.4426 54.8537 46.0597C55.0649 46.6645 55.4086 47.2091 55.8486 47.6361L61.3998 53.2011C60.5856 53.4411 59.7574 53.5623 58.9238 53.5623C54.2305 53.5623 50.3 49.868 49.9758 45.152C49.9753 45.1434 49.9746 45.1349 49.9736 45.1263L49.9154 44.5071C49.9213 43.4898 50.119 42.456 50.5033 41.4338C50.6449 41.0571 50.5531 40.6326 50.2686 40.348L49.2512 39.3306L53.7197 34.8623L54.7343 35.877C55.0154 36.1581 55.4335 36.2515 55.8074 36.1165C56.8923 35.7251 57.8965 35.5315 58.8754 35.5253L59.5105 35.5874C59.5202 35.5884 59.5299 35.5892 59.5396 35.5899C64.255 35.9151 67.9486 39.8528 67.9486 44.5541C67.9485 45.3861 67.8255 46.2114 67.5817 47.0207Z" fill="#F0CA2B"/>
</svg>
