<svg width="70" height="70" viewBox="0 0 70 70" fill="none" xmlns="http://www.w3.org/2000/svg">
<g clip-path="url(#clip0)">
<path d="M62.0065 7.55201C62.0029 4.61216 59.6192 2.22998 56.6787 2.22998H34.3693C32.9563 2.22998 31.6011 2.79114 30.6019 3.79024L1.56109 32.825C-0.520197 34.9058 -0.520364 38.2798 1.56059 40.3611L23.87 62.6706C24.9104 63.711 26.2741 64.2314 27.6379 64.2314C28.4963 64.2314 29.3454 64.0009 30.1231 63.5886C32.9696 61.2446 28.7582 65.3176 60.4461 33.636C61.4457 32.6365 62.0072 31.2811 62.0072 29.8677C62.0072 7.23813 62.0074 11.1038 62.0065 7.55201ZM59.3429 29.8675C59.3429 30.5792 59.0657 31.2485 58.5625 31.7517L29.5215 60.787C29.0183 61.2902 28.3493 61.5673 27.6376 61.5673C26.9259 61.5673 26.257 61.29 25.7536 60.787L3.44456 38.4773C2.94135 37.9741 2.66426 37.3048 2.66426 36.5933C2.66426 35.8816 2.94151 35.2126 3.44472 34.7093L32.4855 5.67437C32.9887 5.17133 33.6576 4.89424 34.3693 4.89424H56.6789C58.1479 4.89424 59.3431 6.0895 59.3431 7.55851V29.8675H59.3429Z" fill="#F0CA2B"/>
<path d="M67.3362 7.55811V32.5312C67.3362 33.2429 67.059 33.9122 66.5558 34.4154L35.0793 65.8861L36.9631 67.7701L68.4394 36.2995C69.439 35.3001 70.0005 33.9446 70.0005 32.5312V7.55811H67.3362Z" fill="#F0CA2B"/>
<path d="M47.3538 11.5547C44.4163 11.5547 42.0253 13.9444 42.0253 16.8832C42.0253 19.8221 44.4163 22.2117 47.3538 22.2117C50.2913 22.2117 52.6823 19.8221 52.6823 16.8832C52.6823 13.9444 50.2911 11.5547 47.3538 11.5547ZM47.3538 19.5475C45.8838 19.5475 44.6895 18.3519 44.6895 16.8832C44.6895 15.4145 45.8838 14.219 47.3538 14.219C48.8238 14.219 50.0181 15.4145 50.0181 16.8832C50.0181 18.3519 48.8238 19.5475 47.3538 19.5475Z" fill="#F0CA2B"/>
</g>
<defs>
<clipPath id="clip0">
<rect width="70" height="70" fill="white"/>
</clipPath>
</defs>
</svg>
