<svg width="70" height="70" viewBox="0 0 70 70" fill="none" xmlns="http://www.w3.org/2000/svg">
<g clip-path="url(#clip0)">
<path d="M69.4237 8.83475C69.3821 8.79564 61.1597 0.954141 61.1597 0.954141C60.8454 0.652539 60.5203 0.34082 59.9132 0.34082H26.8109C25.844 0.34082 25.0573 1.12736 25.0573 2.09424V7.47863L13.3904 9.47855C12.4553 9.64262 11.8264 10.5376 11.9884 11.4718L12.5805 14.9242C8.78834 16.2003 4.895 17.5158 1.13647 18.8659C0.248342 19.1906 -0.217732 20.1782 0.0991818 21.0716L7.57565 41.8551C7.72604 42.2733 8.1202 42.5337 8.54061 42.5337C8.65572 42.5337 8.77303 42.5142 8.8876 42.4729C9.42053 42.2812 9.69711 41.6939 9.50543 41.1609L2.13957 20.6848C5.68059 19.417 9.34766 18.1762 12.9315 16.9699L16.4548 37.5112L20.5091 61.1679C20.6555 62.003 21.3896 62.5972 22.2181 62.5972C22.3119 62.5972 22.407 62.5895 22.5025 62.5738L33.4832 60.6894L42.0636 59.2186L29.1586 63.8571L18.982 67.5161L11.0785 45.5332C10.887 45.0003 10.2998 44.7237 9.7667 44.9152C9.23377 45.1068 8.95719 45.6941 9.14873 46.227L17.1643 68.5223C17.4206 69.2234 18.0848 69.6593 18.7869 69.6593C18.9809 69.6593 19.1779 69.6259 19.3698 69.5558L29.8522 65.787L53.6541 57.2319L58.2012 56.4525H68.2461C69.213 56.4525 69.9996 55.6642 69.9996 54.6951V9.99016C69.9998 9.37642 69.6667 9.06334 69.4237 8.83475ZM66.7069 9.07756H61.5759L61.4487 9.0781C61.203 9.07975 60.6279 9.08398 60.482 8.93906C60.4483 8.90557 60.409 8.79373 60.409 8.58605L60.3971 3.06057L66.7069 9.07756ZM67.949 54.4015H27.1081V34.4177C27.1081 33.8514 26.649 33.3923 26.0827 33.3923C25.5164 33.3923 25.0573 33.8514 25.0573 34.4177V54.6949C25.0573 55.6638 25.844 56.4522 26.8109 56.4522H46.0625L33.1364 58.6679L22.4748 60.4976L18.4761 37.1645L14.0643 11.4436L25.0572 9.55922V29.6599C25.0572 30.2262 25.5163 30.6853 26.0826 30.6853C26.6489 30.6853 27.108 30.2262 27.108 29.6599V2.39146H58.3448L58.3582 8.58838C58.3582 9.33951 58.5866 9.94709 59.0371 10.3944C59.7293 11.0817 60.7078 11.1296 61.3153 11.1296C61.3675 11.1296 61.417 11.1292 61.4633 11.1289L67.949 11.1285V54.4015Z" fill="#F0CA2B"/>
<path d="M32.0512 16.2627C32.0512 16.829 32.5103 17.2881 33.0766 17.2881H62.394C62.9603 17.2881 63.4194 16.829 63.4194 16.2627C63.4194 15.6964 62.9603 15.2373 62.394 15.2373H33.0766C32.5103 15.2373 32.0512 15.6964 32.0512 16.2627Z" fill="#F0CA2B"/>
<path d="M62.394 22.522H33.0766C32.5103 22.522 32.0512 22.9811 32.0512 23.5474C32.0512 24.1137 32.5103 24.5728 33.0766 24.5728H62.394C62.9603 24.5728 63.4194 24.1137 63.4194 23.5474C63.4194 22.9811 62.9603 22.522 62.394 22.522Z" fill="#F0CA2B"/>
<path d="M62.394 29.8066H33.0766C32.5103 29.8066 32.0512 30.2657 32.0512 30.832C32.0512 31.3983 32.5103 31.8574 33.0766 31.8574H62.394C62.9603 31.8574 63.4194 31.3983 63.4194 30.832C63.4194 30.2657 62.9603 29.8066 62.394 29.8066Z" fill="#F0CA2B"/>
<path d="M62.394 37.0913H33.0766C32.5103 37.0913 32.0512 37.5504 32.0512 38.1167C32.0512 38.683 32.5103 39.1421 33.0766 39.1421H62.394C62.9603 39.1421 63.4194 38.683 63.4194 38.1167C63.4194 37.5504 62.9603 37.0913 62.394 37.0913Z" fill="#F0CA2B"/>
<path d="M62.394 44.376H33.0766C32.5103 44.376 32.0512 44.8351 32.0512 45.4014C32.0512 45.9677 32.5103 46.4268 33.0766 46.4268H62.394C62.9603 46.4268 63.4194 45.9677 63.4194 45.4014C63.4194 44.8351 62.9603 44.376 62.394 44.376Z" fill="#F0CA2B"/>
</g>
<defs>
<clipPath id="clip0">
<rect width="70" height="70" fill="white"/>
</clipPath>
</defs>
</svg>
