<svg width="70" height="70" viewBox="0 0 70 70" fill="none" xmlns="http://www.w3.org/2000/svg">
<g clip-path="url(#clip0)">
<path d="M68.5076 18.794L56.2513 6.53772C54.4678 4.75394 51.6994 4.54585 49.669 6.04293L43.0482 10.9246C42.8078 11.1018 42.6567 11.3751 42.6343 11.6729C42.6119 11.9707 42.7206 12.2634 42.9317 12.4746L44.5272 14.0702L37.5177 21.0797H32.4805L25.4706 14.0698L27.0664 12.4738C27.2777 12.2626 27.3861 11.9699 27.3638 11.6721C27.3414 11.3743 27.1902 11.101 26.9498 10.9238L20.3293 6.04321C18.2997 4.54571 15.5314 4.7538 13.7471 6.53827L11.8063 8.47914C11.406 8.87946 11.406 9.5286 11.8063 9.92892C12.2066 10.3292 12.8558 10.3292 13.2561 9.92892L15.197 7.98804C16.2586 6.92641 17.905 6.80241 19.1125 7.69328L21.3153 9.31723L4.26991 26.3625L2.64595 24.1604C1.75577 22.9513 1.87964 21.3039 2.94045 20.2431L10.357 12.8267C10.7573 12.4264 10.7573 11.7774 10.357 11.3769C9.95677 10.9766 9.30763 10.9766 8.90717 11.3769L1.49067 18.7933C-0.292294 20.5762 -0.500791 23.3447 0.99547 25.3765L5.87787 31.9974C6.05506 32.2378 6.32836 32.3888 6.62614 32.4113C6.65184 32.4132 6.67741 32.4141 6.70298 32.4141C6.97368 32.4141 7.23482 32.3068 7.42786 32.1139L9.02352 30.5181L10.2139 31.7085C7.69884 33.8738 6.22733 37.0343 6.22733 40.3816C6.22733 45.8782 10.1502 50.5719 15.4723 51.6115C16.0511 54.6784 18.2354 57.1842 21.1168 58.2178V61.9001C21.1168 63.5841 22.4862 64.954 24.1695 64.954C25.4939 64.954 26.6237 64.1063 27.0459 62.9252H28.5136C28.9357 64.1063 30.0648 64.954 31.3887 64.954C32.7131 64.954 33.843 64.1063 34.2651 62.9252H35.7332C36.1553 64.1061 37.2849 64.9536 38.609 64.9536C39.9331 64.9536 41.0626 64.1061 41.4846 62.9252H42.9529C43.3749 64.1061 44.5045 64.9536 45.8285 64.9536C47.5121 64.9536 48.8817 63.5839 48.8817 61.9004V53.841C50.4895 53.619 51.9347 52.8831 53.0465 51.8043C55.0958 51.6758 57.065 51.0004 58.7655 49.8391C59.2331 49.5197 59.3532 48.8819 59.0339 48.4143C58.7148 47.9469 58.0767 47.8266 57.6092 48.1459C56.7085 48.761 55.7157 49.2087 54.6729 49.478C55.002 48.7392 55.2142 47.938 55.2864 47.0967C57.9335 45.9333 59.6671 43.3196 59.6671 40.3818C59.6671 38.1059 58.6219 35.9993 56.872 34.6209L58.33 33.1629C60.4671 34.9419 61.7207 37.5824 61.7207 40.3815C61.7207 42.2138 61.1903 43.9902 60.1871 45.5187C59.8765 45.9921 60.0083 46.6275 60.4816 46.9383C60.6551 47.0522 60.8502 47.1065 61.0432 47.1065C61.377 47.1065 61.7043 46.9436 61.9011 46.6438C63.1244 44.7802 63.7709 42.6147 63.7709 40.3816C63.7709 37.0336 62.2993 33.8733 59.784 31.7092L60.9751 30.5181L62.5708 32.1138C62.7637 32.3067 63.0248 32.414 63.2955 32.414C63.3211 32.414 63.3467 32.413 63.3724 32.4111C63.6702 32.3887 63.9435 32.2376 64.1207 31.9973L69.0024 25.3766C70.4995 23.3459 70.2914 20.5776 68.5076 18.794ZM51.9795 28.2624C51.9795 28.0051 52.0797 27.7631 52.2617 27.5811L55.1501 24.6927L56.5125 26.0552L53.6241 28.9435C53.4421 29.1255 53.2003 29.2257 52.943 29.2257C52.6857 29.2257 52.4437 29.1255 52.2617 28.9435C52.0797 28.7617 51.9795 28.5197 51.9795 28.2624ZM49.4417 18.9846L50.3526 19.8954L47.4642 22.7837C47.2822 22.9657 47.0404 23.0659 46.7829 23.0659C46.5256 23.0659 46.2838 22.9657 46.1017 22.7837C45.7261 22.4082 45.7261 21.7969 46.1017 21.4213L48.99 18.533L49.4417 18.9846ZM45.9771 15.5199L47.5404 17.0832L44.652 19.9715C43.4771 21.1465 43.4771 23.0584 44.652 24.2334C45.2212 24.8025 45.9781 25.116 46.7829 25.116C47.5879 25.116 48.3447 24.8025 48.9139 24.2334L51.8022 21.345L53.7003 23.2431L50.8119 26.1314C50.2428 26.7006 49.9293 27.4575 49.9293 28.2624C49.9293 29.0672 50.2428 29.8241 50.8119 30.3933C51.3811 30.9624 52.1378 31.2759 52.9429 31.2759C53.7479 31.2759 54.5046 30.9624 55.0738 30.3933L57.9621 27.5049L59.5254 29.0682L52.9405 35.6532L39.3921 22.1049L45.9771 15.5199ZM41.6621 53.9137H42.7753V60.875H41.6621V53.9137ZM34.6253 51.8635L40.4039 46.1906C40.4009 46.2781 40.3972 46.3656 40.3972 46.4538C40.3972 48.5819 41.2945 50.5033 42.7288 51.8635H34.6253ZM27.2234 58.1341C27.6083 57.9842 27.9799 57.8082 28.3362 57.6074V60.875H27.2234V58.1341ZM34.4427 53.9137H35.5558V60.875H34.4427V53.9137ZM32.7607 50.8209C32.7868 50.5465 32.8014 50.2688 32.8014 49.9877C32.8014 45.1678 28.88 41.2464 24.0601 41.2464C23.8713 41.2464 23.6844 41.2544 23.4985 41.2663L29.2138 35.6776C29.4276 38.6836 31.9398 41.0644 34.9992 41.0644C38.1984 41.0644 40.8012 38.4617 40.8012 35.2624C40.8012 35.1254 40.7947 34.9901 40.7853 34.8555L46.6651 39.0907C45.0862 39.3453 43.6713 40.096 42.5874 41.1788L42.5886 41.1725L32.7607 50.8209ZM14.5897 36.0844L16.1588 37.6535L18.0808 43.62C17.4796 44.1849 16.9581 44.8329 16.5352 45.5468C14.1595 45.0193 12.3807 42.8669 12.3807 40.3818C12.3808 38.6602 13.2115 37.072 14.5897 36.0844ZM34.9992 31.5107C37.0679 31.5107 38.7509 33.1937 38.7509 35.2624C38.7509 37.3311 37.0679 39.0141 34.9992 39.0141C32.9305 39.0141 31.2475 37.3311 31.2475 35.2624C31.2475 33.1937 32.9305 31.5107 34.9992 31.5107ZM51.0188 39.6999C51.0188 39.6999 38.6257 30.733 38.4813 30.6243C37.5107 29.8938 36.3046 29.4604 34.9992 29.4604C33.4895 29.4604 32.113 30.0405 31.0798 30.9888L19.7376 42.0763L18.2261 37.3844L32.4807 23.1299H37.5178L51.7723 37.3843L51.0258 39.7029C51.0234 39.702 51.0211 39.701 51.0188 39.6999ZM14.8485 24.6929L17.7368 27.5812C17.9188 27.7632 18.019 28.0051 18.019 28.2624C18.019 28.5197 17.9188 28.7617 17.7368 28.9435C17.5548 29.1255 17.313 29.2257 17.0555 29.2257C16.7982 29.2257 16.5564 29.1255 16.3744 28.9435L13.4861 26.0552L14.8485 24.6929ZM6.82069 29.8215L5.50052 28.0313L22.9843 10.5476L24.7741 11.8669L6.82069 29.8215ZM12.0364 27.5051L14.9246 30.3933C15.4938 30.9624 16.2505 31.2759 17.0555 31.2759C17.8605 31.2759 18.6173 30.9624 19.1865 30.3933C19.7556 29.8241 20.0691 29.0672 20.0691 28.2624C20.0691 27.4575 19.7556 26.7006 19.1865 26.1314L16.2981 23.2431L16.3219 23.2193L18.1962 21.345L21.0845 24.2334C21.6537 24.8025 22.4104 25.116 23.2155 25.116C24.0205 25.116 24.7772 24.8025 25.3464 24.2334C26.5213 23.0584 26.5213 21.1465 25.3464 19.9715L22.458 17.0832L24.0213 15.5199L30.6062 22.1049L17.0579 35.6532L10.4732 29.0685L12.0364 27.5051ZM21.0084 18.533L23.8967 21.4213C24.2723 21.7969 24.2723 22.4082 23.8967 22.7837C23.7148 22.9657 23.4728 23.0659 23.2155 23.0659C22.9581 23.0659 22.7161 22.9657 22.5342 22.7837L19.646 19.8954L21.0084 18.533ZM8.27758 40.3816C8.27758 37.5832 9.53103 34.9425 11.6678 33.1624L13.1261 34.6207C11.3759 35.9992 10.3304 38.1058 10.3304 40.3816C10.3304 42.2217 11.0172 43.9831 12.2642 45.3413C13.1999 46.3604 14.3881 47.0853 15.6952 47.4508C15.4982 48.099 15.3747 48.7787 15.3344 49.4805C11.2389 48.4302 8.27758 44.7089 8.27758 40.3816ZM17.369 49.9877C17.369 46.2983 20.3707 43.2966 24.0601 43.2966C27.7495 43.2966 30.7512 46.2982 30.7512 49.9877C30.7512 53.6772 27.7495 56.6788 24.0601 56.6788C20.3707 56.6788 17.369 53.6772 17.369 49.9877ZM24.1695 62.9037C23.6169 62.9037 23.167 62.4535 23.167 61.9001V58.6837C23.4607 58.7137 23.7585 58.729 24.06 58.729C24.4373 58.729 24.8082 58.7023 25.1731 58.6557V61.9001C25.1731 62.4535 24.7229 62.9037 24.1695 62.9037ZM31.3887 62.9037C30.8361 62.9037 30.3864 62.4535 30.3864 61.9001V56.0248L32.3925 54.0554V61.8999C32.3925 62.4535 31.9423 62.9037 31.3887 62.9037ZM38.609 62.9033C38.056 62.9033 37.606 62.4534 37.606 61.9004V53.9137H39.6118V61.9004C39.6118 62.4534 39.162 62.9033 38.609 62.9033ZM45.8285 62.9033C45.2755 62.9033 44.8257 62.4534 44.8257 61.9004V53.9137H46.8315V61.9004C46.8315 62.4534 46.3815 62.9033 45.8285 62.9033ZM47.8566 51.8629C44.8741 51.8629 42.4474 49.4364 42.4474 46.4538C42.4474 43.4712 44.8739 41.0446 47.8566 41.0446C50.8391 41.0446 53.2658 43.4711 53.2658 46.4538C53.2658 49.4364 50.8391 51.8629 47.8566 51.8629ZM57.6169 40.3818C57.6169 42.2343 56.6603 43.9084 55.1427 44.8599C54.7998 43.2913 53.9624 41.906 52.8019 40.8761L53.8393 37.6538L55.4085 36.0847C56.7863 37.0719 57.6169 38.66 57.6169 40.3818ZM63.1777 29.8211L45.2242 11.8676L47.0143 10.5477L64.4976 28.031L63.1777 29.8211ZM67.3522 24.1595L65.7281 26.3621L48.6831 9.3171L50.8856 7.693C52.0937 6.80227 53.7405 6.92614 54.8016 7.98736L67.0578 20.2436C68.119 21.3048 68.2428 22.9518 67.3522 24.1595Z" fill="#F0CA2B"/>
<path d="M27.1553 49.9876C27.1553 48.2815 25.7673 46.8936 24.0612 46.8936C22.3551 46.8936 20.9671 48.2815 20.9671 49.9876C20.9671 51.6938 22.3551 53.0817 24.0612 53.0817C25.7673 53.0817 27.1553 51.6938 27.1553 49.9876ZM23.0174 49.9876C23.0174 49.4121 23.4856 48.9438 24.0612 48.9438C24.6368 48.9438 25.1051 49.4121 25.1051 49.9876C25.1051 50.5632 24.6368 51.0315 24.0612 51.0315C23.4856 51.0315 23.0174 50.5632 23.0174 49.9876Z" fill="#F0CA2B"/>
<path d="M47.8575 43.3599C46.1514 43.3599 44.7635 44.7478 44.7635 46.4539C44.7635 48.1601 46.1514 49.548 47.8575 49.548C49.5637 49.548 50.9516 48.1601 50.9516 46.4539C50.9516 44.7478 49.5637 43.3599 47.8575 43.3599ZM47.8575 47.4978C47.282 47.4978 46.8137 47.0295 46.8137 46.4539C46.8137 45.8784 47.282 45.4101 47.8575 45.4101C48.4331 45.4101 48.9014 45.8784 48.9014 46.4539C48.9014 47.0295 48.4331 47.4978 47.8575 47.4978Z" fill="#F0CA2B"/>
</g>
<defs>
<clipPath id="clip0">
<rect width="70" height="70" fill="white"/>
</clipPath>
</defs>
</svg>
