<svg width="22" height="22" viewBox="0 0 22 22" fill="none" xmlns="http://www.w3.org/2000/svg">
<path d="M11.7333 5.8667C11.3285 5.8667 11 6.19523 11 6.60003C11 7.00483 11.3285 7.33337 11.7333 7.33337C13.3511 7.33337 14.6667 8.64897 14.6667 10.2667C14.6667 10.6715 14.9952 11 15.4 11C15.8048 11 16.1333 10.6715 16.1333 10.2667C16.1333 7.84083 14.1592 5.8667 11.7333 5.8667Z" fill="#F0CA2B"/>
<path d="M11.7333 2.93335C11.3285 2.93335 11 3.26188 11 3.66668C11 4.07148 11.3285 4.40002 11.7333 4.40002C14.9688 4.40002 17.6 7.03122 17.6 10.2667C17.6 10.6715 17.9285 11 18.3333 11C18.7381 11 19.0667 10.6715 19.0667 10.2667C19.0667 6.22308 15.7769 2.93335 11.7333 2.93335Z" fill="#F0CA2B"/>
<path d="M11.7333 0C11.3285 0 11 0.328533 11 0.733333C11 1.13813 11.3285 1.46667 11.7333 1.46667C16.5865 1.46667 20.5333 5.41347 20.5333 10.2667C20.5333 10.6715 20.8619 11 21.2667 11C21.6715 11 22 10.6715 22 10.2667C22 4.60533 17.3932 0 11.7333 0Z" fill="#F0CA2B"/>
<path d="M19.8 16.1332C17.6704 16.1332 15.642 15.6698 13.772 14.756C13.596 14.668 13.3936 14.6578 13.2103 14.7223C13.0255 14.7868 12.8744 14.9218 12.7893 15.0963L11.6365 17.4826C8.65333 15.8179 6.18347 13.3495 4.52027 10.3663L6.90507 9.21055C7.08107 9.12549 7.21453 8.97442 7.27907 8.78962C7.34213 8.60629 7.3304 8.40389 7.24387 8.22789C6.33013 6.35789 5.86667 4.32949 5.86667 2.19989C5.86667 1.79509 5.53813 1.46655 5.13333 1.46655H0.733333C0.328533 1.46655 0 1.79509 0 2.19989C0 13.1178 8.88213 21.9999 19.8 21.9999C20.2048 21.9999 20.5333 21.6714 20.5333 21.2666V16.8666C20.5333 16.4618 20.2048 16.1332 19.8 16.1332Z" fill="white"/>
</svg>
