<?xml version="1.0" encoding="utf-8"?><svg xmlns="http://www.w3.org/2000/svg" xmlns:xlink="http://www.w3.org/1999/xlink"><symbol viewBox="0 0 14 14" id="chevron-top" xmlns="http://www.w3.org/2000/svg"><g clip-path="url(#aa)"><path d="M1.645 11.083L7 5.74l5.355 5.343L14 9.438l-7-7-7 7 1.645 1.645z"/></g><defs><clipPath id="aa"><path transform="matrix(0 -1 -1 0 14 14)" d="M0 0h14v14H0z"/></clipPath></defs></symbol><symbol viewBox="0 0 12 12" id="clock" xmlns="http://www.w3.org/2000/svg"><path d="M6 0C2.691 0 0 2.691 0 6s2.691 6 6 6 6-2.691 6-6-2.691-6-6-6zm2.854 9.103a.499.499 0 01-.707 0l-2.5-2.5A.498.498 0 015.5 6.25V3a.5.5 0 111 0v3.043l2.354 2.353a.5.5 0 010 .707z"/></symbol><symbol viewBox="0 0 12 12" id="location" xmlns="http://www.w3.org/2000/svg"><path d="M5.898.37a3.915 3.915 0 00-3.91 3.91c0 2.71 3.914 7.34 3.914 7.34S9.81 6.855 9.81 4.28A3.915 3.915 0 005.899.37zm1.18 5.055a1.664 1.664 0 01-1.18.487c-.427 0-.854-.162-1.18-.487a1.67 1.67 0 011.18-2.849 1.67 1.67 0 011.18 2.848z"/></symbol><symbol viewBox="0 0 13 12" id="soc-fb" xmlns="http://www.w3.org/2000/svg"><g clip-path="url(#da)"><path d="M8.62 2.081h1.072V.216a13.65 13.65 0 00-1.56-.083c-1.545 0-2.603.971-2.603 2.757v1.643H3.825V6.62h1.704v5.247h2.09V6.62h1.635l.26-2.085H7.617V3.097c0-.603.163-1.016 1.003-1.016z"/></g><defs><clipPath id="da"><path transform="translate(.8 .133)" d="M0 0h11.733v11.733H0z"/></clipPath></defs></symbol><symbol viewBox="0 0 13 12" id="soc-inst" xmlns="http://www.w3.org/2000/svg"><g clip-path="url(#ea)"><path d="M8.962.133H3.705A3.242 3.242 0 00.467 3.371v5.257a3.242 3.242 0 003.238 3.238h5.257A3.242 3.242 0 0012.2 8.628V3.371A3.242 3.242 0 008.962.133zm2.197 8.495a2.2 2.2 0 01-2.197 2.197H3.705a2.2 2.2 0 01-2.197-2.197V3.371a2.2 2.2 0 012.197-2.197h5.257a2.2 2.2 0 012.197 2.197v5.257z"/><path d="M6.334 2.976A3.027 3.027 0 003.31 6a3.027 3.027 0 003.024 3.023A3.027 3.027 0 009.357 6a3.027 3.027 0 00-3.023-3.024zm0 5.006A1.985 1.985 0 014.35 6c0-1.093.89-1.983 1.983-1.983S8.316 4.907 8.316 6s-.89 1.982-1.982 1.982zm3.15-5.888a.766.766 0 00-.764.763.77.77 0 00.763.763.77.77 0 00.54-.223.767.767 0 00-.54-1.303z"/></g><defs><clipPath id="ea"><path transform="translate(.467 .133)" d="M0 0h11.733v11.733H0z"/></clipPath></defs></symbol><symbol viewBox="0 0 640 640" id="soc-rutube" xmlns="http://www.w3.org/2000/svg"><path d="M0 320v320h640V0H0v320zm419.5-121.7c23.5 6.9 38.2 22.2 43 44.7 2.2 10.1 3.1 47.1 1.6 61.7-3.5 33.2-15.7 49.2-43.1 56.2-4.1 1.1-7.4 2.4-7.3 3 .2.6 13 18.3 28.6 39.3 15.5 21.1 28.6 38.9 29 39.5.7 1-6.4 1.3-34 1.3h-34.8l-11.8-17.8c-6.5-9.7-18.7-27.8-27-40.2l-15.2-22.5-59.8-.3-59.7-.2v81h-62V195.9l123.3.3c114.3.3 123.6.5 129.2 2.1z"/><path d="M229 279v29h81.3c90.7 0 85.9.4 90.2-7 1.8-3.2 2-5.2 2-21.5 0-24.1-1.2-26.5-15-28.5-4.2-.6-37.3-1-82.7-1H229v29z"/></symbol><symbol viewBox="0 0 12 12" id="soc-tw" xmlns="http://www.w3.org/2000/svg"><g clip-path="url(#ga)"><path d="M11.866 2.362a5.015 5.015 0 01-1.386.38c.5-.298.88-.766 1.059-1.33a4.807 4.807 0 01-1.526.582A2.405 2.405 0 005.852 3.64c0 .19.016.374.056.549A6.809 6.809 0 01.95 1.672a2.409 2.409 0 00.74 3.215A2.375 2.375 0 01.601 4.59v.027c0 1.169.834 2.14 1.928 2.363-.196.054-.41.08-.631.08-.154 0-.31-.01-.455-.042A2.428 2.428 0 003.69 8.694a4.833 4.833 0 01-3.558.993 6.772 6.772 0 003.69 1.08c4.427 0 6.847-3.667 6.847-6.845 0-.107-.004-.21-.01-.311a4.8 4.8 0 001.206-1.25z"/></g><defs><clipPath id="ga"><path transform="translate(.133 .133)" d="M0 0h11.733v11.733H0z"/></clipPath></defs></symbol><symbol viewBox="0 0 13 13" id="soc-vk" xmlns="http://www.w3.org/2000/svg"><g clip-path="url(#ha)"><path d="M12.029 9.358c-.032-.053-.227-.477-1.165-1.348-.983-.913-.851-.765.332-2.342.721-.96 1.01-1.548.92-1.798-.086-.24-.617-.176-.617-.176l-1.763.01s-.13-.018-.228.04c-.094.057-.155.19-.155.19s-.28.743-.652 1.375c-.786 1.334-1.1 1.405-1.229 1.322-.298-.193-.223-.776-.223-1.19 0-1.293.195-1.832-.382-1.971-.193-.046-.333-.077-.824-.082-.63-.007-1.162.002-1.464.15-.2.098-.356.317-.26.33.116.015.38.07.52.261.18.246.174.799.174.799s.104 1.522-.242 1.71c-.239.13-.565-.134-1.266-1.345-.358-.62-.63-1.305-.63-1.305s-.052-.128-.145-.196c-.113-.083-.271-.11-.271-.11l-1.677.01S.531 3.7.438 3.81c-.082.098-.006.299-.006.299s1.313 3.07 2.798 4.619c1.364 1.419 2.911 1.326 2.911 1.326h.701s.212-.024.32-.14c.1-.107.096-.308.096-.308s-.014-.941.423-1.08c.43-.136.984.91 1.57 1.312.443.305.78.238.78.238l1.567-.022s.82-.05.43-.695z"/></g><defs><clipPath id="ha"><path transform="translate(.4 .867)" d="M0 0h11.733v11.733H0z"/></clipPath></defs></symbol><symbol viewBox="0 0 50 50" id="soc-ya-zen" xmlns="http://www.w3.org/2000/svg"><path d="M46.894 23.986h.011a.998.998 0 00.996-1.091C46.897 11.852 38.154 3.106 27.11 2.1a1 1 0 00-1.091 1.008c.174 14.676 2.11 20.673 20.875 20.878zm0 2.028c-18.765.205-20.7 6.202-20.874 20.878a1 1 0 001.091 1.008c11.044-1.006 19.787-9.751 20.79-20.795a.999.999 0 00-.262-.769 1.055 1.055 0 00-.745-.322zM22.823 2.105C11.814 3.14 3.099 11.884 2.1 22.897a.999.999 0 00.996 1.09h.012c18.703-.215 20.634-6.209 20.81-20.875a1.003 1.003 0 00-1.095-1.007zM3.107 26.013c-.311-.035-.555.113-.746.321a1.003 1.003 0 00-.262.769c.999 11.013 9.715 19.757 20.724 20.792a1.002 1.002 0 001.094-1.008c-.176-14.665-2.106-20.659-20.81-20.874z"/></symbol><symbol viewBox="0 0 576 512" id="soc-yt" xmlns="http://www.w3.org/2000/svg"><path d="M549.655 124.083c-6.281-23.65-24.787-42.276-48.284-48.597C458.781 64 288 64 288 64S117.22 64 74.629 75.486c-23.497 6.322-42.003 24.947-48.284 48.597-11.412 42.867-11.412 132.305-11.412 132.305s0 89.438 11.412 132.305c6.281 23.65 24.787 41.5 48.284 47.821C117.22 448 288 448 288 448s170.78 0 213.371-11.486c23.497-6.321 42.003-24.171 48.284-47.821 11.412-42.867 11.412-132.305 11.412-132.305s0-89.438-11.412-132.305zm-317.51 213.508V175.185l142.739 81.205-142.739 81.201z"/></symbol><symbol viewBox="0 0 20 20" id="star" xmlns="http://www.w3.org/2000/svg"><path d="M20 7.727l-7.267-.477L9.996.374 7.259 7.25 0 7.727l5.568 4.728-1.827 7.171 6.255-3.954 6.255 3.954-1.827-7.171L20 7.727z"/></symbol></svg>