<svg width="12" height="12" viewBox="0 0 12 12" fill="none" xmlns="http://www.w3.org/2000/svg">
<g clip-path="url(#clip0)">
<path d="M11.8664 2.36175C11.4301 2.55315 10.9651 2.68002 10.4804 2.74162C10.9791 2.44389 11.3597 1.97602 11.5386 1.41209C11.0737 1.68929 10.5603 1.88509 10.0133 1.99435C9.57179 1.52429 8.94259 1.23315 8.25619 1.23315C6.92446 1.23315 5.85232 2.31409 5.85232 3.63922C5.85232 3.82989 5.86846 4.01322 5.90806 4.18775C3.90826 4.09022 2.13872 3.13175 0.94999 1.67169C0.742457 2.03175 0.620723 2.44389 0.620723 2.88755C0.620723 3.72062 1.04972 4.45909 1.68919 4.88662C1.30272 4.87929 0.92359 4.76709 0.60239 4.59035C0.60239 4.59769 0.60239 4.60722 0.60239 4.61675C0.60239 5.78569 1.43619 6.75662 2.52959 6.98029C2.33379 7.03382 2.12039 7.05949 1.89892 7.05949C1.74492 7.05949 1.58946 7.05069 1.44352 7.01842C1.75519 7.97102 2.63959 8.67135 3.69119 8.69409C2.87279 9.33429 1.83366 9.72002 0.708723 9.72002C0.511457 9.72002 0.322257 9.71122 0.133057 9.68702C1.19859 10.3742 2.46139 10.7665 3.82319 10.7665C8.24959 10.7665 10.6696 7.09982 10.6696 3.92155C10.6696 3.81522 10.6659 3.71255 10.6608 3.61062C11.1382 3.27182 11.5393 2.84869 11.8664 2.36175Z" fill="white"/>
</g>
<defs>
<clipPath id="clip0">
<rect width="11.7333" height="11.7333" fill="white" transform="translate(0.133057 0.133057)"/>
</clipPath>
</defs>
</svg>
