<?xml version="1.0" standalone="no"?>
<!DOCTYPE svg PUBLIC "-//W3C//DTD SVG 20010904//EN"
 "http://www.w3.org/TR/2001/REC-SVG-20010904/DTD/svg10.dtd">
<svg version="1.0" xmlns="http://www.w3.org/2000/svg"
 width="640.000000pt" height="640.000000pt" viewBox="0 0 640.000000 640.000000"
 preserveAspectRatio="xMidYMid meet">

<g transform="translate(0.000000,640.000000) scale(0.100000,-0.100000)"
fill="#000000" stroke="none">
<path d="M0 3200 l0 -3200 3200 0 3200 0 0 3200 0 3200 -3200 0 -3200 0 0
-3200z m4195 1217 c235 -69 382 -222 430 -447 22 -101 31 -471 16 -617 -35
-332 -157 -492 -431 -562 -41 -11 -74 -24 -73 -30 2 -6 130 -183 286 -393 155
-211 286 -389 290 -395 7 -10 -64 -13 -340 -13 l-348 0 -118 178 c-65 97 -187
278 -270 402 l-152 225 -598 3 -597 2 0 -405 0 -405 -310 0 -310 0 0 1240 0
1241 1233 -3 c1143 -3 1236 -5 1292 -21z"/>
<path d="M2290 3610 l0 -290 813 0 c907 0 859 -4 902 70 18 32 20 52 20 215 0
241 -12 265 -150 285 -42 6 -373 10 -827 10 l-758 0 0 -290z"/>
</g>
</svg>
